<svg width="83" height="86" viewBox="0 0 83 86" fill="none" xmlns="http://www.w3.org/2000/svg">
<path d="M83 43.2628C83 19.3694 64.4198 9.73138e-07 41.5 9.73138e-07C18.5802 9.73138e-07 0 19.3694 0 43.2628C0 64.8565 15.1759 82.7544 35.0156 86V55.7684H24.4785V43.2628H35.0156V33.7314C35.0156 22.8887 41.2113 16.8995 50.6908 16.8995C55.2312 16.8995 59.9805 17.7445 59.9805 17.7445V28.3912H54.7474C49.5921 28.3912 47.9844 31.7261 47.9844 35.1474V43.2628H59.4941L57.6542 55.7684H47.9844V86C67.8241 82.7544 83 64.8565 83 43.2628Z" fill="#EA1E1E"/>
</svg>
