<svg width="393" height="852" viewBox="0 0 393 852" fill="none" xmlns="http://www.w3.org/2000/svg">
<rect width="393" height="852" fill="white"/>
<path d="M0 141H182V214V287H0V141Z" fill="#EA1E1E"/>
<path d="M40.4775 268V233H56.2275C58.6275 233 60.7609 233.517 62.6275 234.55C64.4942 235.583 65.9609 237 67.0275 238.8C68.0942 240.6 68.6275 242.667 68.6275 245C68.6275 247.433 68.0942 249.6 67.0275 251.5C65.9609 253.4 64.4942 254.9 62.6275 256C60.7609 257.067 58.6275 257.6 56.2275 257.6H51.2775V268H40.4775ZM51.0775 248.4H54.2275C54.8609 248.4 55.4275 248.283 55.9275 248.05C56.4275 247.783 56.8109 247.417 57.0775 246.95C57.3775 246.483 57.5275 245.9 57.5275 245.2C57.5275 244.5 57.3775 243.933 57.0775 243.5C56.8109 243.067 56.4275 242.75 55.9275 242.55C55.4275 242.317 54.8609 242.2 54.2275 242.2H51.0775V248.4ZM91.5084 268.5C88.7417 268.5 86.2084 268.05 83.9084 267.15C81.6084 266.25 79.6084 264.983 77.9084 263.35C76.2084 261.717 74.8917 259.783 73.9584 257.55C73.0584 255.317 72.6084 252.883 72.6084 250.25C72.6084 247.583 73.0584 245.15 73.9584 242.95C74.8917 240.717 76.2084 238.783 77.9084 237.15C79.6084 235.517 81.6084 234.25 83.9084 233.35C86.2084 232.45 88.7251 232 91.4584 232C94.2251 232 96.7417 232.45 99.0084 233.35C101.308 234.25 103.308 235.517 105.008 237.15C106.708 238.783 108.008 240.717 108.908 242.95C109.842 245.15 110.308 247.567 110.308 250.2C110.308 252.867 109.842 255.317 108.908 257.55C108.008 259.783 106.708 261.717 105.008 263.35C103.308 264.983 101.308 266.25 99.0084 267.15C96.7417 268.05 94.2417 268.5 91.5084 268.5ZM91.4584 258.5C92.5917 258.5 93.6251 258.3 94.5584 257.9C95.5251 257.5 96.3584 256.933 97.0584 256.2C97.7917 255.433 98.3417 254.55 98.7084 253.55C99.1084 252.55 99.3084 251.45 99.3084 250.25C99.3084 249.05 99.1084 247.95 98.7084 246.95C98.3417 245.95 97.7917 245.083 97.0584 244.35C96.3584 243.583 95.5251 243 94.5584 242.6C93.6251 242.2 92.5917 242 91.4584 242C90.3251 242 89.2751 242.2 88.3084 242.6C87.3751 243 86.5417 243.583 85.8084 244.35C85.1084 245.083 84.5584 245.95 84.1584 246.95C83.7917 247.95 83.6084 249.05 83.6084 250.25C83.6084 251.45 83.7917 252.55 84.1584 253.55C84.5584 254.55 85.1084 255.433 85.8084 256.2C86.5417 256.933 87.3751 257.5 88.3084 257.9C89.2751 258.3 90.3251 258.5 91.4584 258.5ZM116.308 268V233H132.708C135.141 233 137.308 233.483 139.208 234.45C141.108 235.417 142.591 236.733 143.658 238.4C144.724 240.067 145.258 241.983 145.258 244.15C145.258 246.583 144.724 248.717 143.658 250.55C142.591 252.383 141.108 253.817 139.208 254.85C137.308 255.85 135.141 256.35 132.708 256.35H126.408V268H116.308ZM134.658 268L125.758 252.2L136.808 250.95L146.708 268H134.658ZM126.408 248.85H131.008C131.841 248.85 132.524 248.7 133.058 248.4C133.624 248.067 134.041 247.617 134.308 247.05C134.608 246.483 134.758 245.8 134.758 245C134.758 244.267 134.608 243.65 134.308 243.15C134.041 242.617 133.608 242.217 133.008 241.95C132.441 241.65 131.708 241.5 130.808 241.5H126.408V248.85ZM158.983 268V242.2H148.183V233H180.883V242.2H169.783V268H158.983ZM186.376 268V233H197.176V268H186.376ZM191.526 255.7V247.2H209.676V255.7H191.526ZM191.526 242.2V233H211.526V242.2H191.526ZM234.331 268.5C231.564 268.5 229.031 268.05 226.731 267.15C224.431 266.25 222.431 264.983 220.731 263.35C219.031 261.717 217.714 259.783 216.781 257.55C215.881 255.317 215.431 252.883 215.431 250.25C215.431 247.583 215.881 245.15 216.781 242.95C217.714 240.717 219.031 238.783 220.731 237.15C222.431 235.517 224.431 234.25 226.731 233.35C229.031 232.45 231.547 232 234.281 232C237.047 232 239.564 232.45 241.831 233.35C244.131 234.25 246.131 235.517 247.831 237.15C249.531 238.783 250.831 240.717 251.731 242.95C252.664 245.15 253.131 247.567 253.131 250.2C253.131 252.867 252.664 255.317 251.731 257.55C250.831 259.783 249.531 261.717 247.831 263.35C246.131 264.983 244.131 266.25 241.831 267.15C239.564 268.05 237.064 268.5 234.331 268.5ZM234.281 258.5C235.414 258.5 236.447 258.3 237.381 257.9C238.347 257.5 239.181 256.933 239.881 256.2C240.614 255.433 241.164 254.55 241.531 253.55C241.931 252.55 242.131 251.45 242.131 250.25C242.131 249.05 241.931 247.95 241.531 246.95C241.164 245.95 240.614 245.083 239.881 244.35C239.181 243.583 238.347 243 237.381 242.6C236.447 242.2 235.414 242 234.281 242C233.147 242 232.097 242.2 231.131 242.6C230.197 243 229.364 243.583 228.631 244.35C227.931 245.083 227.381 245.95 226.981 246.95C226.614 247.95 226.431 249.05 226.431 250.25C226.431 251.45 226.614 252.55 226.981 253.55C227.381 254.55 227.931 255.433 228.631 256.2C229.364 256.933 230.197 257.5 231.131 257.9C232.097 258.3 233.147 258.5 234.281 258.5ZM259.13 268V233H269.93V258.8H284.93V268H259.13ZM289.69 268V259.25H295.84V241.75H289.69V233H312.79V241.75H306.64V259.25H312.79V268H289.69ZM336.723 268.5C333.957 268.5 331.423 268.05 329.123 267.15C326.823 266.25 324.823 264.983 323.123 263.35C321.423 261.717 320.107 259.783 319.173 257.55C318.273 255.317 317.823 252.883 317.823 250.25C317.823 247.583 318.273 245.15 319.173 242.95C320.107 240.717 321.423 238.783 323.123 237.15C324.823 235.517 326.823 234.25 329.123 233.35C331.423 232.45 333.94 232 336.673 232C339.44 232 341.957 232.45 344.223 233.35C346.523 234.25 348.523 235.517 350.223 237.15C351.923 238.783 353.223 240.717 354.123 242.95C355.057 245.15 355.523 247.567 355.523 250.2C355.523 252.867 355.057 255.317 354.123 257.55C353.223 259.783 351.923 261.717 350.223 263.35C348.523 264.983 346.523 266.25 344.223 267.15C341.957 268.05 339.457 268.5 336.723 268.5ZM336.673 258.5C337.807 258.5 338.84 258.3 339.773 257.9C340.74 257.5 341.573 256.933 342.273 256.2C343.007 255.433 343.557 254.55 343.923 253.55C344.323 252.55 344.523 251.45 344.523 250.25C344.523 249.05 344.323 247.95 343.923 246.95C343.557 245.95 343.007 245.083 342.273 244.35C341.573 243.583 340.74 243 339.773 242.6C338.84 242.2 337.807 242 336.673 242C335.54 242 334.49 242.2 333.523 242.6C332.59 243 331.757 243.583 331.023 244.35C330.323 245.083 329.773 245.95 329.373 246.95C329.007 247.95 328.823 249.05 328.823 250.25C328.823 251.45 329.007 252.55 329.373 253.55C329.773 254.55 330.323 255.433 331.023 256.2C331.757 256.933 332.59 257.5 333.523 257.9C334.49 258.3 335.54 258.5 336.673 258.5Z" fill="black"/>
<path d="M245.826 305V294.091H248.43V298.219H248.484C248.59 297.971 248.741 297.731 248.936 297.5C249.135 297.269 249.387 297.081 249.693 296.935C250.002 296.786 250.371 296.712 250.801 296.712C251.369 296.712 251.9 296.861 252.393 297.159C252.891 297.457 253.292 297.917 253.597 298.539C253.903 299.16 254.055 299.952 254.055 300.914C254.055 301.841 253.908 302.617 253.613 303.242C253.322 303.867 252.928 304.336 252.431 304.648C251.937 304.961 251.388 305.117 250.785 305.117C250.373 305.117 250.016 305.05 249.714 304.915C249.412 304.78 249.158 304.602 248.952 304.382C248.75 304.162 248.594 303.926 248.484 303.674H248.404V305H245.826ZM248.377 300.909C248.377 301.349 248.436 301.733 248.553 302.06C248.674 302.386 248.846 302.64 249.07 302.821C249.297 302.999 249.569 303.088 249.885 303.088C250.204 303.088 250.476 302.999 250.7 302.821C250.923 302.64 251.092 302.386 251.206 302.06C251.323 301.733 251.381 301.349 251.381 300.909C251.381 300.469 251.323 300.087 251.206 299.764C251.092 299.441 250.923 299.19 250.7 299.013C250.479 298.835 250.208 298.746 249.885 298.746C249.565 298.746 249.293 298.833 249.07 299.007C248.846 299.181 248.674 299.43 248.553 299.753C248.436 300.076 248.377 300.462 248.377 300.909ZM256.749 308.068C256.437 308.068 256.142 308.043 255.865 307.994C255.588 307.947 255.35 307.885 255.151 307.807L255.727 305.916C255.982 306.001 256.213 306.051 256.419 306.065C256.629 306.08 256.808 306.046 256.957 305.964C257.11 305.886 257.227 305.746 257.309 305.543L257.41 305.298L254.502 296.818H257.229L258.736 302.656H258.821L260.35 296.818H263.093L260.009 305.783C259.86 306.23 259.649 306.625 259.375 306.966C259.106 307.31 258.756 307.58 258.326 307.775C257.9 307.971 257.374 308.068 256.749 308.068ZM272.119 277.364L277.166 286.094H277.382L282.483 277.364H289.958L281.619 291.182L290.228 305H282.563L277.382 296.175H277.166L271.984 305H264.373L272.942 291.182L264.589 277.364H272.119ZM300.093 277.364V305H293.413V277.364H300.093ZM310.264 305H303.085L312.41 277.364H321.302L330.627 305H323.448L316.957 284.327H316.741L310.264 305ZM309.306 294.124H324.312V299.197H309.306V294.124Z" fill="black"/>
<rect x="159" y="420" width="234" height="50" fill="#EA1E1E"/>
<rect x="52" y="333" width="47" height="43" fill="#EA1E1E"/>
<rect x="290" y="490" width="103" height="15" fill="#EA1E1E"/>
</svg>
