<svg width="1440" height="816" viewBox="0 0 1440 816" fill="none" xmlns="http://www.w3.org/2000/svg">
<g clip-path="url(#clip0_211_905)">
<rect width="1440" height="816" fill="white"/>
<rect x="1259" width="181" height="378" fill="#EA1E1E"/>
<path d="M-1 321H685V471V621H-1V321Z" fill="#EA1E1E"/>
<rect x="1028" y="583" width="412" height="108" fill="#EA1E1E"/>
<rect x="393" y="89" width="160" height="144" fill="#EA1E1E"/>
<path d="M856.172 542V523.818H861.072V530.743H861.143C861.321 530.281 861.581 529.858 861.925 529.473C862.268 529.083 862.694 528.772 863.203 528.541C863.712 528.304 864.304 528.186 864.979 528.186C865.878 528.186 866.734 528.426 867.544 528.905C868.361 529.385 869.024 530.139 869.533 531.169C870.048 532.199 870.305 533.536 870.305 535.182C870.305 536.756 870.06 538.061 869.569 539.097C869.083 540.133 868.432 540.905 867.615 541.414C866.805 541.923 865.914 542.178 864.943 542.178C864.304 542.178 863.733 542.074 863.23 541.867C862.733 541.654 862.306 541.367 861.951 541.006C861.602 540.639 861.333 540.224 861.143 539.763H861.037V542H856.172ZM860.966 535.182C860.966 535.845 861.052 536.419 861.223 536.904C861.401 537.384 861.65 537.756 861.969 538.023C862.295 538.283 862.682 538.413 863.132 538.413C863.582 538.413 863.964 538.286 864.277 538.032C864.597 537.771 864.84 537.401 865.005 536.922C865.177 536.437 865.263 535.857 865.263 535.182C865.263 534.507 865.177 533.93 865.005 533.451C864.84 532.965 864.597 532.595 864.277 532.341C863.964 532.08 863.582 531.95 863.132 531.95C862.682 531.95 862.295 532.08 861.969 532.341C861.65 532.595 861.401 532.965 861.223 533.451C861.052 533.93 860.966 534.507 860.966 535.182ZM874.174 547.114C873.612 547.114 873.076 547.069 872.567 546.98C872.058 546.898 871.611 546.782 871.227 546.634L872.292 543.154C872.694 543.296 873.061 543.388 873.393 543.429C873.73 543.471 874.017 543.447 874.254 543.358C874.497 543.27 874.671 543.101 874.778 542.852L874.884 542.604L870.09 528.364H875.204L877.406 537.81H877.548L879.785 528.364H884.934L879.962 543.136C879.714 543.888 879.353 544.563 878.879 545.161C878.412 545.764 877.796 546.241 877.033 546.59C876.269 546.939 875.316 547.114 874.174 547.114ZM907.602 476.545L918.341 495.594H918.852L929.718 476.545H949.534L929.974 509.273L950.301 542H929.974L918.852 522.568H918.341L907.218 542H887.02L907.091 509.273L887.659 476.545H907.602ZM972.266 476.545V542H954.496V476.545H972.266ZM994.991 542H975.814L997.42 476.545H1021.71L1043.31 542H1024.14L1009.82 494.571H1009.31L994.991 542ZM991.411 516.176H1027.46V529.472H991.411V516.176Z" fill="black"/>
<rect x="1259" width="181" height="378" fill="#EA1E1E"/>
<path d="M-1 321H685V471V621H-1V321Z" fill="#EA1E1E"/>
<rect x="1028" y="583" width="412" height="108" fill="#EA1E1E"/>
<rect x="393" y="89" width="160" height="144" fill="#EA1E1E"/>
<path d="M303.64 471V377.9H345.535C351.919 377.9 357.594 379.274 362.559 382.023C367.524 384.772 371.426 388.54 374.263 393.328C377.1 398.116 378.519 403.613 378.519 409.82C378.519 416.293 377.1 422.056 374.263 427.11C371.426 432.164 367.524 436.154 362.559 439.08C357.594 441.917 351.919 443.336 345.535 443.336H332.368V471H303.64ZM331.836 418.864H340.215C341.9 418.864 343.407 418.554 344.737 417.933C346.067 417.224 347.087 416.248 347.796 415.007C348.594 413.766 348.993 412.214 348.993 410.352C348.993 408.49 348.594 406.983 347.796 405.83C347.087 404.677 346.067 403.835 344.737 403.303C343.407 402.682 341.9 402.372 340.215 402.372H331.836V418.864ZM439.382 472.33C432.023 472.33 425.284 471.133 419.166 468.739C413.048 466.345 407.728 462.976 403.206 458.631C398.684 454.286 395.182 449.144 392.699 443.203C390.305 437.262 389.108 430.79 389.108 423.785C389.108 416.692 390.305 410.219 392.699 404.367C395.182 398.426 398.684 393.284 403.206 388.939C407.728 384.594 413.048 381.225 419.166 378.831C425.284 376.437 431.978 375.24 439.249 375.24C446.608 375.24 453.303 376.437 459.332 378.831C465.45 381.225 470.77 384.594 475.292 388.939C479.814 393.284 483.272 398.426 485.666 404.367C488.149 410.219 489.39 416.647 489.39 423.652C489.39 430.745 488.149 437.262 485.666 443.203C483.272 449.144 479.814 454.286 475.292 458.631C470.77 462.976 465.45 466.345 459.332 468.739C453.303 471.133 446.653 472.33 439.382 472.33ZM439.249 445.73C442.264 445.73 445.012 445.198 447.495 444.134C450.066 443.07 452.283 441.563 454.145 439.612C456.096 437.573 457.559 435.223 458.534 432.563C459.598 429.903 460.13 426.977 460.13 423.785C460.13 420.593 459.598 417.667 458.534 415.007C457.559 412.347 456.096 410.042 454.145 408.091C452.283 406.052 450.066 404.5 447.495 403.436C445.012 402.372 442.264 401.84 439.249 401.84C436.234 401.84 433.441 402.372 430.87 403.436C428.387 404.5 426.171 406.052 424.22 408.091C422.358 410.042 420.895 412.347 419.831 415.007C418.856 417.667 418.368 420.593 418.368 423.785C418.368 426.977 418.856 429.903 419.831 432.563C420.895 435.223 422.358 437.573 424.22 439.612C426.171 441.563 428.387 443.07 430.87 444.134C433.441 445.198 436.234 445.73 439.249 445.73ZM505.348 471V377.9H548.972C555.445 377.9 561.208 379.186 566.262 381.757C571.316 384.328 575.262 387.831 578.099 392.264C580.936 396.697 582.355 401.796 582.355 407.559C582.355 414.032 580.936 419.706 578.099 424.583C575.262 429.46 571.316 433.272 566.262 436.021C561.208 438.681 555.445 440.011 548.972 440.011H532.214V471H505.348ZM554.159 471L530.485 428.972L559.878 425.647L586.212 471H554.159ZM532.214 420.061H544.45C546.667 420.061 548.484 419.662 549.903 418.864C551.41 417.977 552.519 416.78 553.228 415.273C554.026 413.766 554.425 411.948 554.425 409.82C554.425 407.869 554.026 406.229 553.228 404.899C552.519 403.48 551.366 402.416 549.77 401.707C548.263 400.909 546.312 400.51 543.918 400.51H532.214V420.061ZM618.864 471V402.372H590.136V377.9H677.118V402.372H647.592V471H618.864ZM691.73 471V377.9H720.458V471H691.73ZM705.429 438.282V415.672H753.708V438.282H705.429ZM705.429 402.372V377.9H758.629V402.372H705.429ZM819.289 472.33C811.93 472.33 805.191 471.133 799.073 468.739C792.955 466.345 787.635 462.976 783.113 458.631C778.591 454.286 775.089 449.144 772.606 443.203C770.212 437.262 769.015 430.79 769.015 423.785C769.015 416.692 770.212 410.219 772.606 404.367C775.089 398.426 778.591 393.284 783.113 388.939C787.635 384.594 792.955 381.225 799.073 378.831C805.191 376.437 811.886 375.24 819.156 375.24C826.516 375.24 833.21 376.437 839.239 378.831C845.357 381.225 850.677 384.594 855.199 388.939C859.721 393.284 863.179 398.426 865.573 404.367C868.056 410.219 869.297 416.647 869.297 423.652C869.297 430.745 868.056 437.262 865.573 443.203C863.179 449.144 859.721 454.286 855.199 458.631C850.677 462.976 845.357 466.345 839.239 468.739C833.21 471.133 826.56 472.33 819.289 472.33ZM819.156 445.73C822.171 445.73 824.92 445.198 827.402 444.134C829.974 443.07 832.19 441.563 834.052 439.612C836.003 437.573 837.466 435.223 838.441 432.563C839.505 429.903 840.037 426.977 840.037 423.785C840.037 420.593 839.505 417.667 838.441 415.007C837.466 412.347 836.003 410.042 834.052 408.091C832.19 406.052 829.974 404.5 827.402 403.436C824.92 402.372 822.171 401.84 819.156 401.84C816.142 401.84 813.349 402.372 810.777 403.436C808.295 404.5 806.078 406.052 804.127 408.091C802.265 410.042 800.802 412.347 799.738 415.007C798.763 417.667 798.275 420.593 798.275 423.785C798.275 426.977 798.763 429.903 799.738 432.563C800.802 435.223 802.265 437.573 804.127 439.612C806.078 441.563 808.295 443.07 810.777 444.134C813.349 445.198 816.142 445.73 819.156 445.73ZM885.255 471V377.9H913.983V446.528H953.883V471H885.255ZM966.546 471V447.725H982.905V401.175H966.546V377.9H1027.99V401.175H1011.63V447.725H1027.99V471H966.546ZM1091.65 472.33C1084.29 472.33 1077.56 471.133 1071.44 468.739C1065.32 466.345 1060 462.976 1055.48 458.631C1050.96 454.286 1047.45 449.144 1044.97 443.203C1042.58 437.262 1041.38 430.79 1041.38 423.785C1041.38 416.692 1042.58 410.219 1044.97 404.367C1047.45 398.426 1050.96 393.284 1055.48 388.939C1060 384.594 1065.32 381.225 1071.44 378.831C1077.56 376.437 1084.25 375.24 1091.52 375.24C1098.88 375.24 1105.57 376.437 1111.6 378.831C1117.72 381.225 1123.04 384.594 1127.56 388.939C1132.09 393.284 1135.54 398.426 1137.94 404.367C1140.42 410.219 1141.66 416.647 1141.66 423.652C1141.66 430.745 1140.42 437.262 1137.94 443.203C1135.54 449.144 1132.09 454.286 1127.56 458.631C1123.04 462.976 1117.72 466.345 1111.6 468.739C1105.57 471.133 1098.92 472.33 1091.65 472.33ZM1091.52 445.73C1094.54 445.73 1097.28 445.198 1099.77 444.134C1102.34 443.07 1104.55 441.563 1106.42 439.612C1108.37 437.573 1109.83 435.223 1110.81 432.563C1111.87 429.903 1112.4 426.977 1112.4 423.785C1112.4 420.593 1111.87 417.667 1110.81 415.007C1109.83 412.347 1108.37 410.042 1106.42 408.091C1104.55 406.052 1102.34 404.5 1099.77 403.436C1097.28 402.372 1094.54 401.84 1091.52 401.84C1088.51 401.84 1085.71 402.372 1083.14 403.436C1080.66 404.5 1078.44 406.052 1076.49 408.091C1074.63 410.042 1073.17 412.347 1072.1 415.007C1071.13 417.667 1070.64 420.593 1070.64 423.785C1070.64 426.977 1071.13 429.903 1072.1 432.563C1073.17 435.223 1074.63 437.573 1076.49 439.612C1078.44 441.563 1080.66 443.07 1083.14 444.134C1085.71 445.198 1088.51 445.73 1091.52 445.73Z" fill="black"/>
</g>
<defs>
<clipPath id="clip0_211_905">
<rect width="1440" height="816" fill="white"/>
</clipPath>
</defs>
</svg>
