<?xml version="1.0" encoding="UTF-8"?><svg id="Layer_1" xmlns="http://www.w3.org/2000/svg" width="87" height="101" xmlns:xlink="http://www.w3.org/1999/xlink" viewBox="0 0 87 101"><defs><style>.cls-1{fill:url(#Orchid_2);}.cls-2{fill:#0073c1;}.cls-3{fill:#004a9e;}.cls-4{fill:#f1f1f1;stroke:#000;stroke-miterlimit:10;stroke-width:.5px;}.cls-5{fill:#fff;}.cls-6{fill:#00ade6;}.cls-7{fill:url(#Orchid_2-2);}</style><linearGradient id="Orchid_2" x1="-9065.35" y1="74.35" x2="-9053.35" y2="74.35" gradientTransform="translate(-9000.84) rotate(-180) scale(1 -1)" gradientUnits="userSpaceOnUse"><stop offset="0" stop-color="#ff71ac"/><stop offset=".22" stop-color="#ff71ac" stop-opacity=".76"/><stop offset=".6" stop-color="#ff71ac" stop-opacity=".36"/><stop offset=".87" stop-color="#ff71ac" stop-opacity=".1"/><stop offset="1" stop-color="#ff71ac" stop-opacity="0"/></linearGradient><linearGradient id="Orchid_2-2" x1="23.87" y1="74.68" x2="35.87" y2="74.68" gradientTransform="matrix(1,0,0,1,0,0)" xlink:href="#Orchid_2"/></defs><rect class="cls-6" x="6.54" y="26.81" width="73.49" height="73.49" rx="4.51" ry="4.51"/><rect class="cls-2" x="4.29" y="26.28" width="79" height="14.86" rx="3.54" ry="3.54"/><rect class="cls-3" x="39.51" y="26.28" width="9" height="73.68"/><path class="cls-3" d="M48.5,22.28c1.64-4.42,3.89-8.61,7.92-11.26s9-3.64,13.72-2.53c1.87.44,4.29,1.18,5.17,3.09.71,1.54-.4,3-1.68,4.2-3.41,3.19-8.48,4.17-12.92,4.95-3.09.54-6.2.86-9.33.99s-6.29.19-9.36-.32c-1.6-.26-3.23.42-3.69,2.1-.39,1.44.49,3.42,2.1,3.69,6.97,1.15,14.23.6,21.16-.54,5.94-.98,12.35-2.58,16.71-7.03,2.32-2.37,3.85-5.56,3.03-8.92s-3.64-5.78-6.78-7.07c-6.04-2.49-13.15-1.92-18.94.96-2.9,1.44-5.55,3.56-7.57,6.08-2.42,3.01-3.98,6.44-5.32,10.04-.56,1.52.63,3.29,2.1,3.69,1.68.46,3.12-.57,3.69-2.1h0Z"/><path class="cls-3" d="M38.91,21.61c-4.91,1.57-9.85,2.38-14.77.35-3.93-1.62-7.09-4.78-8.85-8.63-.81-1.77-1.45-4.11-.45-5.64.79-1.21,2.62-1.18,4.18-.87,4.67.94,8.51,4.36,11.88,7.52,4.15,3.89,8.2,8.3,10.94,13.32,1.85,3.39,7.04.36,5.18-3.03-3.01-5.5-7.48-10.43-12.05-14.69S25.31,1.59,19,.8c-2.99-.37-6.24.18-8.33,2.53-2.26,2.54-2.69,5.98-1.96,9.21,1.27,5.63,5.49,10.73,10.42,13.6,3.07,1.79,6.54,2.8,10.08,3.05,3.84.27,7.67-.63,11.3-1.79,1.54-.49,2.54-2.08,2.1-3.69-.42-1.52-2.14-2.59-3.69-2.1h0Z"/><path class="cls-3" d="M44.65,21.8c-7.18,2.84-13.86,6.73-20.9,9.87s-14.02,5.51-21.3,7.4c-3.73.97-2.15,6.76,1.6,5.79,7.49-1.95,14.79-4.51,21.88-7.62s13.34-6.89,20.32-9.65c1.51-.6,2.56-2.01,2.1-3.69-.39-1.43-2.17-2.69-3.69-2.1h0Z"/><path class="cls-3" d="M42.69,30.13c6.47,2.46,12.96,4.92,19.67,6.65,6.99,1.79,14.18,2.46,21.33,3.28,1.61.19,3-1.51,3-3,0-1.78-1.38-2.81-3-3-6.79-.79-13.56-1.45-20.19-3.19-6.55-1.71-12.89-4.12-19.21-6.53-1.51-.58-3.29.64-3.69,2.1-.46,1.69.57,3.11,2.1,3.69h0Z"/><rect class="cls-2" x="37.48" y="22.16" width="13.56" height="7.65" rx="1.5" ry="1.5"/><ellipse class="cls-1" cx="58.5" cy="74.35" rx="6" ry="2.25"/><path class="cls-4" d="M38.04,75.53c1.25-.51,3.8.4,6.28.32,3.14-.1,5.33-.18,6.68.4.09.59-.12,1.15-.61,2.52-.52,1.48-1.44,2.35-1.64,2.53-1.86,1.7-4.24,1.59-4.75,1.55-.29.04-2.86.33-4.73-1.61-.85-.88-1.21-1.88-1.35-2.41-.41-1.53-.05-2.79.12-3.29Z"/><path d="M50.35,78.44c-4.06.27-8.23.67-12.21-.39-.19-.05-.27.24-.08.29,4.01,1.07,8.2.68,12.29.4.19-.01.19-.31,0-.3h0Z"/><ellipse class="cls-7" cx="29.87" cy="74.68" rx="6" ry="2.25"/><path d="M22.03,56.94c-.02.15-.1.75.55,1.6.29.38,1.5.94,1.78,1-.22.2-.97.25-1.55.17-1.14-.15-1.55-.88-1.78-1-.1.75.17,1.55.87,2.03.44.3,1.9.73,2.2.68.61-1.04,1.08-2.37,1.69-3.41-.66,0-1.2,0-1.61-.02-.7-.03-.9-.06-1.13-.15-.53-.22-.85-.63-1.02-.9Z"/><path d="M35.78,65.39c-1.18,3.48-4.97,5.35-8.45,4.16-3.48-1.18-5.35-4.97-4.16-8.45,1.18-3.48,4.97-5.35,8.45-4.16.21.07,1.12.35,2.06,1.14,1.87,1.58,3.05,4.54,2.1,7.32Z"/><circle class="cls-5" cx="26.17" cy="63.96" r="2.61"/><circle class="cls-5" cx="31.32" cy="61.43" r="1.45"/><path d="M66.77,56.94c.02.15.1.75-.55,1.6-.29.38-1.5.94-1.78,1,.22.2.97.25,1.55.17,1.14-.15,1.55-.88,1.78-1,.1.75-.17,1.55-.87,2.03-.44.3-1.9.73-2.2.68-.61-1.04-1.08-2.37-1.69-3.41.66,0,1.2,0,1.61-.02.7-.03.9-.06,1.13-.15.53-.22.85-.63,1.02-.9Z"/><path d="M65.32,64.97c-1.18,3.48-4.97,5.35-8.45,4.16s-5.35-4.97-4.16-8.45c1.18-3.48,4.97-5.35,8.45-4.16.21.07,1.12.35,2.06,1.14,1.87,1.58,3.05,4.54,2.1,7.32Z"/><circle class="cls-5" cx="55.71" cy="63.54" r="2.61"/><circle class="cls-5" cx="60.86" cy="61.01" r="1.45"/></svg>