<?xml version="1.0" encoding="UTF-8"?><svg id="Layer_1" xmlns="http://www.w3.org/2000/svg" width="87" height="101" xmlns:xlink="http://www.w3.org/1999/xlink" viewBox="0 0 87 101"><defs><style>.cls-1{fill:url(#Orchid_2);}.cls-2{fill:#f9ed38;}.cls-3{fill:#f1f1f1;stroke:#000;stroke-miterlimit:10;stroke-width:.5px;}.cls-4{fill:#fff;}.cls-5{fill:url(#Orchid_2-2);}.cls-6{fill:#faea00;}.cls-7{fill:#f8ee63;}.cls-8{fill:#f8e000;}</style><linearGradient id="Orchid_2" x1="-8341.83" y1="69.69" x2="-8329.83" y2="69.69" gradientTransform="translate(-8277.37) rotate(-180) scale(1 -1)" gradientUnits="userSpaceOnUse"><stop offset="0" stop-color="#ff71ac"/><stop offset=".22" stop-color="#ff71ac" stop-opacity=".76"/><stop offset=".6" stop-color="#ff71ac" stop-opacity=".36"/><stop offset=".87" stop-color="#ff71ac" stop-opacity=".1"/><stop offset="1" stop-color="#ff71ac" stop-opacity="0"/></linearGradient><linearGradient id="Orchid_2-2" x1="23.82" y1="70.02" x2="35.82" y2="70.02" gradientTransform="matrix(1,0,0,1,0,0)" xlink:href="#Orchid_2"/></defs><rect class="cls-7" x="6.63" y="26.7" width="73.49" height="73.49" rx="4.51" ry="4.51" transform="translate(-.25 .18) rotate(-.23)"/><rect class="cls-6" x="4.27" y="26.17" width="79" height="14.86" rx="3.54" ry="3.54" transform="translate(-.13 .18) rotate(-.23)"/><rect class="cls-8" x="39.6" y="26.17" width="9" height="73.68" transform="translate(-.25 .18) rotate(-.23)"/><path class="cls-8" d="M48.44,22.16c1.62-4.42,3.86-8.63,7.87-11.3s8.98-3.69,13.71-2.59c1.87.43,4.29,1.17,5.18,3.06.72,1.54-.38,3.01-1.65,4.21-3.4,3.21-8.46,4.21-12.9,5.01-3.08.55-6.2.88-9.33,1.02s-6.29.21-9.36-.28c-1.6-.26-3.23.41-3.69,2.1-.39,1.43.49,3.43,2.1,3.69,6.97,1.13,14.23.55,21.16-.62,5.94-1,12.35-2.63,16.69-7.09,2.31-2.38,3.84-5.57,3.01-8.93s-3.65-5.77-6.8-7.06c-6.04-2.47-13.16-1.87-18.94,1.02-2.89,1.45-5.53,3.58-7.55,6.1-2.41,3.01-3.96,6.46-5.28,10.06-.56,1.52.63,3.29,2.1,3.69,1.67.46,3.13-.57,3.69-2.1h0Z"/><path class="cls-8" d="M38.85,21.52c-4.91,1.59-9.83,2.41-14.77.42-3.96-1.6-7.08-4.76-8.89-8.59-.44-.92-.8-1.96-.94-2.97s-.04-1.9.45-2.67c.79-1.23,2.61-1.2,4.17-.89,4.67.92,8.53,4.33,11.91,7.47,4.17,3.88,8.23,8.27,11,13.28,1.87,3.38,7.05.36,5.18-3.03-3.03-5.49-7.52-10.4-12.1-14.65S25.18,1.56,18.86.78c-2.99-.37-6.24.2-8.33,2.56-2.26,2.55-2.68,5.98-1.94,9.21,1.3,5.63,5.52,10.72,10.46,13.57,3.08,1.78,6.55,2.78,10.09,3.02,3.84.26,7.67-.66,11.3-1.83,1.54-.5,2.54-2.08,2.1-3.69-.42-1.51-2.14-2.6-3.69-2.1h0Z"/><path class="cls-8" d="M44.59,21.68c-7.17,2.86-13.83,6.78-20.86,9.95-6.86,3.09-14,5.56-21.27,7.48-3.73.98-2.15,6.77,1.6,5.79,7.48-1.97,14.78-4.57,21.85-7.7s13.31-6.94,20.28-9.73c1.5-.6,2.56-2,2.1-3.69-.39-1.43-2.18-2.7-3.69-2.1h0Z"/><path class="cls-8" d="M42.64,30.02c6.48,2.43,12.97,4.87,19.69,6.57,6.99,1.77,14.19,2.41,21.34,3.21,1.61.18,3-1.51,3-3s-1.38-2.82-3-3c-6.79-.76-13.57-1.4-20.2-3.11s-12.9-4.08-19.24-6.45c-1.52-.57-3.29.63-3.69,2.1-.46,1.68.57,3.12,2.1,3.69h0Z"/><rect class="cls-2" x="37.43" y="22.05" width="13.56" height="7.65" rx="1.5" ry="1.5" transform="translate(-.1 .18) rotate(-.23)"/><ellipse class="cls-1" cx="58.46" cy="69.69" rx="6" ry="2.25"/><path class="cls-3" d="M38,70.87c1.25-.51,3.8.4,6.28.32,3.14-.1,5.33-.18,6.68.4.09.59-.12,1.15-.61,2.52-.52,1.48-1.44,2.35-1.64,2.53-1.86,1.7-4.24,1.59-4.75,1.55-.29.04-2.86.33-4.73-1.61-.85-.88-1.21-1.88-1.35-2.41-.41-1.53-.05-2.79.12-3.29Z"/><path d="M50.31,73.78c-4.06.27-8.23.67-12.21-.39-.19-.05-.27.24-.08.29,4.01,1.07,8.2.68,12.29.4.19-.01.19-.31,0-.3h0Z"/><ellipse class="cls-5" cx="29.82" cy="70.02" rx="6" ry="2.25"/><path d="M21.99,52.28c-.02.15-.1.75.55,1.6.29.38,1.5.94,1.78,1-.22.2-.97.25-1.55.17-1.14-.15-1.55-.88-1.78-1-.1.75.17,1.55.87,2.03.44.3,1.9.73,2.2.68.61-1.04,1.08-2.37,1.69-3.41-.66,0-1.2,0-1.61-.02-.7-.03-.9-.06-1.13-.15-.53-.22-.85-.63-1.02-.9Z"/><path d="M35.74,60.74c-1.18,3.48-4.97,5.35-8.45,4.16s-5.35-4.97-4.16-8.45c1.18-3.48,4.97-5.35,8.45-4.16.21.07,1.12.35,2.06,1.14,1.87,1.58,3.05,4.54,2.1,7.32Z"/><circle class="cls-4" cx="26.13" cy="59.3" r="2.61"/><circle class="cls-4" cx="31.27" cy="56.77" r="1.45"/><path d="M66.72,52.28c.02.15.1.75-.55,1.6-.29.38-1.5.94-1.78,1,.22.2.97.25,1.55.17,1.14-.15,1.55-.88,1.78-1,.1.75-.17,1.55-.87,2.03-.44.3-1.9.73-2.2.68-.61-1.04-1.08-2.37-1.69-3.41.66,0,1.2,0,1.61-.02.7-.03.9-.06,1.13-.15.53-.22.85-.63,1.02-.9Z"/><path d="M65.28,60.32c-1.18,3.48-4.97,5.35-8.45,4.16s-5.35-4.97-4.16-8.45c1.18-3.48,4.97-5.35,8.45-4.16.21.07,1.12.35,2.06,1.14,1.87,1.58,3.05,4.54,2.1,7.32Z"/><circle class="cls-4" cx="55.67" cy="58.88" r="2.61"/><circle class="cls-4" cx="60.81" cy="56.35" r="1.45"/></svg>