<?xml version="1.0" encoding="UTF-8"?><svg id="Layer_1" xmlns="http://www.w3.org/2000/svg" width="87" height="101" xmlns:xlink="http://www.w3.org/1999/xlink" viewBox="0 0 87 101"><defs><style>.cls-1{fill:url(#Orchid_2);}.cls-2{fill:#f1f1f1;stroke:#000;stroke-miterlimit:10;stroke-width:.5px;}.cls-3{fill:#00943a;}.cls-4{fill:#fff;}.cls-5{fill:#00a236;}.cls-6{fill:url(#Orchid_2-2);}.cls-7{fill:#00b737;}</style><linearGradient id="Orchid_2" x1="-8677.23" y1="73.57" x2="-8665.23" y2="73.57" gradientTransform="translate(-8612.97) rotate(-180) scale(1 -1)" gradientUnits="userSpaceOnUse"><stop offset="0" stop-color="#ff71ac"/><stop offset=".22" stop-color="#ff71ac" stop-opacity=".76"/><stop offset=".6" stop-color="#ff71ac" stop-opacity=".36"/><stop offset=".87" stop-color="#ff71ac" stop-opacity=".1"/><stop offset="1" stop-color="#ff71ac" stop-opacity="0"/></linearGradient><linearGradient id="Orchid_2-2" x1="23.63" y1="73.9" x2="35.63" y2="73.9" gradientTransform="matrix(1,0,0,1,0,0)" xlink:href="#Orchid_2"/></defs><rect class="cls-5" x="6.23" y="26.78" width="73.49" height="73.49" rx="4.51" ry="4.51" transform="translate(.51 -.34) rotate(.46)"/><rect class="cls-3" x="4.23" y="26.26" width="79" height="14.86" rx="3.54" ry="3.54" transform="translate(.27 -.35) rotate(.46)"/><rect class="cls-7" x="39.21" y="26.26" width="9" height="73.68" transform="translate(.51 -.35) rotate(.46)"/><path class="cls-7" d="M48.54,22.27c1.68-4.41,3.98-8.56,8.03-11.19s9.03-3.55,13.74-2.4c1.87.46,4.28,1.23,5.13,3.15.69,1.56-.47,3-1.74,4.18-3.43,3.16-8.53,4.09-12.97,4.83-3.09.51-6.21.8-9.34.9s-6.28.13-9.35-.4c-1.59-.28-3.23.43-3.69,2.1-.4,1.45.49,3.41,2.1,3.69,6.96,1.21,14.22.71,21.16-.38,5.96-.93,12.36-2.49,16.76-6.91,2.34-2.35,3.88-5.54,3.08-8.9s-3.41-5.67-6.4-6.97c-6.14-2.65-13.32-2.22-19.28.68-2.9,1.41-5.58,3.51-7.62,6.02-2.44,3-4.02,6.41-5.39,10-.58,1.51.64,3.29,2.1,3.69,1.69.46,3.11-.58,3.69-2.1h0Z"/><path class="cls-7" d="M38.93,21.56c-4.9,1.52-9.89,2.31-14.77.22-3.89-1.67-7.06-4.85-8.77-8.71-.41-.93-.77-1.97-.88-2.99s-.01-1.9.5-2.65c.81-1.19,2.65-1.14,4.19-.8,4.66,1.01,8.46,4.43,11.81,7.63,4.12,3.93,8.12,8.37,10.83,13.41,1.83,3.4,7.01.38,5.18-3.03-2.97-5.53-7.4-10.49-11.93-14.78C30.75,5.73,25.69,1.5,19.57.62c-3.12-.45-6.51-.04-8.73,2.43s-2.72,5.96-2.02,9.2c1.23,5.65,5.42,10.77,10.32,13.68,3.06,1.82,6.52,2.84,10.06,3.12,3.83.31,7.68-.57,11.32-1.7s2.11-6.93-1.6-5.79h0Z"/><path class="cls-7" d="M44.45,21.29c-7.14,2.95-13.75,6.93-20.74,10.18s-13.92,5.73-21.18,7.74c-3.72,1.03-2.14,6.82,1.6,5.79,7.46-2.06,14.73-4.73,21.76-7.95s13.23-7.11,20.16-9.97c1.5-.62,2.56-1.99,2.1-3.69-.39-1.41-2.18-2.72-3.69-2.1h0Z"/><path class="cls-7" d="M42.68,30.1c6.45,2.51,12.91,5.03,19.61,6.81,6.97,1.85,14.16,2.57,21.3,3.45,1.61.2,3-1.52,3-3,0-1.79-1.38-2.8-3-3-6.78-.84-13.55-1.57-20.16-3.36s-12.85-4.23-19.16-6.69c-1.51-.59-3.29.65-3.69,2.1-.47,1.7.58,3.1,2.1,3.69h0Z"/><rect class="cls-3" x="37.49" y="22.14" width="13.56" height="7.65" rx="1.5" ry="1.5" transform="translate(.21 -.36) rotate(.46)"/><ellipse class="cls-1" cx="58.26" cy="73.57" rx="6" ry="2.25"/><path class="cls-2" d="M37.8,74.75c1.25-.51,3.8.4,6.28.32,3.14-.1,5.33-.18,6.68.4.09.59-.12,1.15-.61,2.52-.52,1.48-1.44,2.35-1.64,2.53-1.86,1.7-4.24,1.59-4.75,1.55-.29.04-2.86.33-4.73-1.61-.85-.88-1.21-1.88-1.35-2.41-.41-1.53-.05-2.79.12-3.29Z"/><path d="M50.11,77.66c-4.06.27-8.23.67-12.21-.39-.19-.05-.27.24-.08.29,4.01,1.07,8.2.68,12.29.4.19-.01.19-.31,0-.3h0Z"/><ellipse class="cls-6" cx="29.63" cy="73.9" rx="6" ry="2.25"/><path d="M21.79,56.16c-.02.15-.1.75.55,1.6.29.38,1.5.94,1.78,1-.22.2-.97.25-1.55.17-1.14-.15-1.55-.88-1.78-1-.1.75.17,1.55.87,2.03.44.3,1.9.73,2.2.68.61-1.04,1.08-2.37,1.69-3.41-.66,0-1.2,0-1.61-.02-.7-.03-.9-.06-1.13-.15-.53-.22-.85-.63-1.02-.9Z"/><path d="M35.54,64.62c-1.18,3.48-4.97,5.35-8.45,4.16s-5.35-4.97-4.16-8.45c1.18-3.48,4.97-5.35,8.45-4.16.21.07,1.12.35,2.06,1.14,1.87,1.58,3.05,4.54,2.1,7.32Z"/><circle class="cls-4" cx="25.93" cy="63.18" r="2.61"/><circle class="cls-4" cx="31.08" cy="60.65" r="1.45"/><path d="M66.53,56.16c.02.15.1.75-.55,1.6-.29.38-1.5.94-1.78,1,.22.2.97.25,1.55.17,1.14-.15,1.55-.88,1.78-1,.1.75-.17,1.55-.87,2.03-.44.3-1.9.73-2.2.68-.61-1.04-1.08-2.37-1.69-3.41.66,0,1.2,0,1.61-.02.7-.03.9-.06,1.13-.15.53-.22.85-.63,1.02-.9Z"/><path d="M65.08,64.2c-1.18,3.48-4.97,5.35-8.45,4.16s-5.35-4.97-4.16-8.45c1.18-3.48,4.97-5.35,8.45-4.16.21.07,1.12.35,2.06,1.14,1.87,1.58,3.05,4.54,2.1,7.32Z"/><circle class="cls-4" cx="55.47" cy="62.76" r="2.61"/><circle class="cls-4" cx="60.62" cy="60.23" r="1.45"/></svg>