<svg width="77" height="77" viewBox="0 0 77 77" fill="none" xmlns="http://www.w3.org/2000/svg">
<path d="M25.6714 38.481C25.6714 31.3971 31.4159 25.653 38.5041 25.653C45.5922 25.653 51.3398 31.3971 51.3398 38.481C51.3398 45.5649 45.5922 51.309 38.5041 51.309C31.4159 51.309 25.6714 45.5649 25.6714 38.481ZM18.7327 38.481C18.7327 49.3942 27.5843 58.2405 38.5041 58.2405C49.4239 58.2405 58.2755 49.3942 58.2755 38.481C58.2755 27.5678 49.4239 18.7215 38.5041 18.7215C27.5843 18.7215 18.7327 27.5678 18.7327 38.481ZM54.4377 17.938C54.4373 18.8513 54.708 19.7442 55.2154 20.5038C55.7228 21.2634 56.4442 21.8555 57.2883 22.2054C58.1324 22.5552 59.0614 22.647 59.9578 22.4692C60.8542 22.2914 61.6776 21.8519 62.3241 21.2064C62.9705 20.5608 63.4109 19.7382 63.5895 18.8425C63.7682 17.9468 63.677 17.0183 63.3277 16.1744C62.9783 15.3305 62.3864 14.6091 61.6267 14.1014C60.8671 13.5937 59.9739 13.3225 59.06 13.3221H59.0582C57.8333 13.3227 56.6586 13.8091 55.7923 14.6746C54.926 15.5401 54.4388 16.7138 54.4377 17.938V17.938ZM22.9484 69.8036C19.1944 69.6328 17.154 69.0078 15.7981 68.4799C14.0004 67.7804 12.7177 66.9474 11.3692 65.6015C10.0206 64.2556 9.18584 62.9749 8.48907 61.1783C7.96049 59.8238 7.33518 57.784 7.16453 54.0322C6.97787 49.976 6.94059 48.7576 6.94059 38.4813C6.94059 28.205 6.98095 26.99 7.16453 22.9304C7.33549 19.1786 7.96542 17.1428 8.48907 15.7843C9.18892 13.9877 10.0225 12.7058 11.3692 11.3581C12.7159 10.0103 13.9973 9.17603 15.7981 8.47967C17.1534 7.95141 19.1944 7.32647 22.9484 7.15593C27.0071 6.96937 28.2263 6.93212 38.5041 6.93212C48.7819 6.93212 50.0023 6.97245 54.0644 7.15593C57.8184 7.32678 59.8554 7.95633 61.2147 8.47967C63.0124 9.17603 64.2951 10.0121 65.6436 11.3581C66.9922 12.704 67.8239 13.9877 68.5237 15.7843C69.0523 17.1388 69.6776 19.1786 69.8483 22.9304C70.0349 26.99 70.0722 28.205 70.0722 38.4813C70.0722 48.7576 70.0349 49.9727 69.8483 54.0322C69.6773 57.784 69.0489 59.8232 68.5237 61.1783C67.8239 62.9749 66.9903 64.2568 65.6436 65.6015C64.2969 66.9462 63.0124 67.7804 61.2147 68.4799C59.8594 69.0081 57.8184 69.6331 54.0644 69.8036C50.0057 69.9902 48.7865 70.0274 38.5041 70.0274C28.2217 70.0274 27.0058 69.9902 22.9484 69.8036V69.8036ZM22.6296 0.233041C18.5306 0.419597 15.7297 1.06916 13.2836 2.02041C10.7503 3.00275 8.60582 4.32065 6.46283 6.45896C4.31985 8.59727 3.00455 10.7439 2.02162 13.2756C1.0698 15.7218 0.419849 18.5195 0.233181 22.6161C0.0434326 26.7191 0 28.0308 0 38.481C0 48.9312 0.0434326 50.2429 0.233181 54.3459C0.419849 58.4428 1.0698 61.2402 2.02162 63.6864C3.00455 66.2166 4.32016 68.3656 6.46283 70.503C8.60551 72.6404 10.7503 73.9565 13.2836 74.9416C15.7343 75.8928 18.5306 76.5424 22.6296 76.729C26.7372 76.9155 28.0476 76.962 38.5041 76.962C48.9606 76.962 50.2731 76.9186 54.3786 76.729C58.4779 76.5424 61.277 75.8928 63.7246 74.9416C66.2563 73.9565 68.4024 72.6413 70.5453 70.503C72.6883 68.3647 74.0009 66.2166 74.9866 63.6864C75.9384 61.2402 76.5914 58.4425 76.775 54.3459C76.9617 50.2399 77.0051 48.9312 77.0051 38.481C77.0051 28.0308 76.9617 26.7191 76.775 22.6161C76.5883 18.5192 75.9384 15.7203 74.9866 13.2756C74.0009 10.7454 72.6849 8.60066 70.5453 6.45896C68.4057 4.31726 66.2563 3.00275 63.7277 2.02041C61.277 1.06916 58.4775 0.416518 54.3816 0.233041C50.2762 0.0464851 48.9636 0 38.5072 0C28.0507 0 26.7372 0.0434066 22.6296 0.233041Z" fill="#EA1E1E"/>
</svg>
