<?xml version="1.0" encoding="UTF-8"?><svg id="Layer_1" xmlns="http://www.w3.org/2000/svg" width="233" height="231" xmlns:xlink="http://www.w3.org/1999/xlink" viewBox="0 0 233 231"><defs><style>.cls-1{fill:url(#Orchid_2);}.cls-2{fill:#f9ed38;}.cls-3{fill:#0073c1;}.cls-4{fill:url(#radial-gradient);}.cls-5{fill:#004a9e;}.cls-6{fill:#ff0c2c;}.cls-7{stroke-width:.25px;}.cls-7,.cls-8,.cls-9,.cls-10{fill:#f1f1f1;stroke:#000;stroke-miterlimit:10;}.cls-8{stroke-width:.17px;}.cls-9{stroke-width:.19px;}.cls-10{stroke-width:.24px;}.cls-11{fill:#7c4a1a;}.cls-12{fill:#00943a;}.cls-13{fill:#fff;}.cls-14{fill:#926031;}.cls-15{fill:#00ade6;}.cls-16{fill:#00a236;}.cls-17{fill:url(#Orchid_2-5);}.cls-18{fill:url(#Orchid_2-7);}.cls-19{fill:url(#Orchid_2-4);}.cls-20{fill:url(#Orchid_2-2);}.cls-21{fill:url(#Orchid_2-3);}.cls-22{fill:url(#Orchid_2-6);}.cls-23{fill:url(#Orchid_2-8);}.cls-24{fill:#faea00;}.cls-25{fill:red;}.cls-26{fill:#8a5b2d;}.cls-27{fill:#f8ee63;}.cls-28{fill:#ad7a4a;}.cls-29{fill:#00b737;}.cls-30{fill:#f8e000;}.cls-31{fill:#6b4012;}</style><radialGradient id="radial-gradient" cx="-3075.29" cy="395.46" fx="-3087.94" fy="395.46" r="43" gradientTransform="translate(8625.26 -28.46) scale(2.77 .58)" gradientUnits="userSpaceOnUse"><stop offset="0" stop-color="#000" stop-opacity=".4"/><stop offset="1" stop-color="#000" stop-opacity="0"/></radialGradient><linearGradient id="Orchid_2" x1="-8692.64" y1="344.77" x2="-8686.64" y2="344.77" gradientTransform="translate(-8591.57 -308.67) rotate(-180) scale(1 -1)" gradientUnits="userSpaceOnUse"><stop offset="0" stop-color="#ff71ac"/><stop offset=".22" stop-color="#ff71ac" stop-opacity=".76"/><stop offset=".6" stop-color="#ff71ac" stop-opacity=".36"/><stop offset=".87" stop-color="#ff71ac" stop-opacity=".1"/><stop offset="1" stop-color="#ff71ac" stop-opacity="0"/></linearGradient><linearGradient id="Orchid_2-2" x1="-216.75" y1="344.93" x2="-210.75" y2="344.93" gradientTransform="translate(299.09 -302.3)" xlink:href="#Orchid_2"/><linearGradient id="Orchid_2-3" x1="-9033.7" y1="36.66" x2="-9028.13" y2="36.66" gradientTransform="translate(-8887.03 -3.41) rotate(-180) scale(1 -1)" xlink:href="#Orchid_2"/><linearGradient id="Orchid_2-4" x1="125.78" y1="36.83" x2="131.34" y2="36.83" gradientTransform="translate(2.05 -3.36)" xlink:href="#Orchid_2"/><linearGradient id="Orchid_2-5" x1="-9158.19" y1="-201.4" x2="-9153.73" y2="-201.4" gradientTransform="translate(-36.66 -9109.02) rotate(-90) scale(1 -1)" xlink:href="#Orchid_2"/><linearGradient id="Orchid_2-6" x1="254" y1="-201.28" x2="258.46" y2="-201.28" gradientTransform="translate(-46.79 -212.15) rotate(90)" xlink:href="#Orchid_2"/><linearGradient id="Orchid_2-7" x1="-8883.52" y1="220.83" x2="-8879.35" y2="220.83" gradientTransform="translate(-8758.46 -174.08) rotate(-180) scale(1 -1)" xlink:href="#Orchid_2"/><linearGradient id="Orchid_2-8" x1="-19.67" y1="220.95" x2="-15.5" y2="220.95" gradientTransform="translate(130.92 -171.81)" xlink:href="#Orchid_2"/></defs><ellipse class="cls-4" cx="114.79" cy="199.32" rx="114.35" ry="31.6"/><path class="cls-26" d="M50.92,58.7c.65.42,1.33.76,2.04,1.05.18.08.42-.08.46-.26.05-.22-.07-.38-.26-.46-.02,0-.05-.02-.07-.03.03.01.03.01-.01,0-.05-.02-.09-.04-.13-.06-.08-.03-.16-.07-.23-.11-.17-.08-.33-.16-.5-.25-.31-.16-.62-.34-.92-.53-.17-.11-.42-.04-.51.13-.1.19-.04.4.13.51h0Z"/><path class="cls-14" d="M58.42,56.35c-.43.02-.85-.02-1.28,0-.52.01-1.02.14-1.54.22l.4-.05c-.42.05-.84-.02-1.25.03-.68.08-1.32.27-1.8.79-.54.57-.61,1.56,0,2.12s1.55.61,2.12,0c.05-.05.09-.09.15-.13l-.3.23c.07-.05.15-.09.23-.13l-.36.15c.11-.04.21-.07.33-.09l-.4.05c.35-.05.69,0,1.04-.01.46-.02.91-.13,1.36-.21l-.4.05c.57-.07,1.14,0,1.7-.03.78-.04,1.54-.66,1.5-1.5-.03-.78-.66-1.55-1.5-1.5h0Z"/><path class="cls-14" d="M191.43,59.87c.22-.87.25-1.81.19-2.7-.04-.67-.22-1.23-.66-1.75-.25-.3-.59-.54-.94-.7-.76-.34-1.56-.5-2.38-.65-.93-.17-1.86-.3-2.8-.4-.36-.04-.82.19-1.06.44-.26.26-.46.69-.44,1.06s.14.79.44,1.06c.31.28.64.4,1.06.44.3.03.6.07.9.11l-.4-.05c.88.12,1.76.28,2.63.48.17.04.34.08.5.13.07.02.14.05.21.07.26.09-.36-.17-.06-.02.03.02.21.09.21.13,0-.06-.32-.26-.09-.06.19.17-.2-.3-.07-.09.07.13.04.08-.06-.15.02.06.03.12.04.18l-.05-.4c.08.66.06,1.36-.02,2.01l.05-.4c-.02.16-.06.32-.09.47-.19.76.24,1.66,1.05,1.85s1.64-.23,1.85-1.05h0Z"/><path class="cls-28" d="M63.14,52.47c-5,.07-8.77.92-8.7,5.92.07,5,4.15,10.94,1.19,13.98s-4.86,10.07-9.81,14.14c-4.94,4.07-13.86,10.19-16.71,21.23-2.85,11.04-1.79,15.03-1.7,22.03.1,7,4.67,48.94,8.72,51.88,4.04,2.94,7.19,13.9,32.27,19.56,25.08,5.66,46.09,6.37,62.08,5.15s32-.44,69.66-24.96c37.67-24.52,2.02-71.03.97-75.02s-15.44-31.79-12.59-42.83c3.26-12.63-9.38-11.08-9.38-11.08,0,0,11.27.84,12-4,.79-5.25-12-4-12-4,0,0,14.04-1.01,13-4s-13-5-13-5c0,0,10.47-2.78,9-7-4.16-11.94-133.21-13.3-133,2,.08,6,7,7,7,7,0,0-9.07-3.01-10,2s10,5,10,5c0,0-11.1-3.07-11,4,.08,6,12,4,12,4Z"/><path class="cls-14" d="M52.57,57.38c-1.7.43-3.43,1.76-2.81,3.73.59,1.85,2.96,2.5,4.63,2.84,5.09,1.03,10.46.82,15.62.82,10.96,0,21.92.01,32.87.02,6.31,0,12.62,0,18.93,0,1.93,0,1.93-3,0-3-9.63,0-19.26,0-28.89-.01s-19.14.12-28.71-.04c-2.5-.04-5.03-.12-7.52-.44-1.12-.14-2.31-.32-3.36-.76-.23-.1-.63-.34-.72-.32.02,0-.04.35-.06.34-.02,0,.87-.31.81-.3,1.87-.47,1.08-3.36-.8-2.89h0Z"/><path class="cls-14" d="M122.99,64.67c8.78-.35,17.55.17,26.33.28,4.27.05,8.55,0,12.81-.3s8.61-.92,12.89-1.53c4.84-.69,9.7-1.32,14.51-2.2,1.9-.35,1.09-3.24-.8-2.89-4.17.76-8.37,1.33-12.56,1.93s-8.54,1.24-12.84,1.61c-8.56.72-17.16.33-25.73.11-4.87-.13-9.75-.19-14.62,0-1.92.08-1.93,3.08,0,3h0Z"/><path class="cls-14" d="M187.66,61.29c3.69,1.45,5.45,6.2,6.57,9.67,1.28,3.95,2.06,8.06,3.62,11.92,3.19,7.9,10.83,15.38,19.88,14.75,1.92-.13,1.93-3.13,0-3-4.88.34-8.72-1.93-12.08-5.27-3.04-3.02-4.84-6.6-6.09-10.66-2.12-6.91-3.38-17.25-11.1-20.29-1.8-.71-2.58,2.19-.8,2.89h0Z"/><path class="cls-14" d="M190.26,61.23c3.78-.98,7.33-.34,9.73,2.92,2.15,2.93,3.28,6.49,4.53,9.85,1.23,3.33,2.59,6.62,4.82,9.42,2.21,2.78,5.19,4.92,8.44,6.31,4.2,1.8,8.81,2.35,13.34,1.95,1.91-.17,1.93-3.17,0-3-7.65.67-15.94-1.68-20.37-8.38-3.99-6.04-4.45-14.16-9.65-19.45-3.12-3.17-7.51-3.59-11.65-2.52-1.87.48-1.08,3.38.8,2.89h0Z"/><path class="cls-26" d="M191.81,57.02c-1.93.11-3.69,1.42-4.32,3.25-.34.98-.35,2.23.44,3,.33.32.79.54,1.26.54.53,0,.98-.29,1.36-.62.84-.72,1.57-1.6,2.14-2.55.28-.46.52-.94.72-1.43.2-.47.49-1.07.46-1.59-.02-.42-.37-.7-.78-.72-.45-.03-.85.19-1.21.44-.83.58-1.48,1.39-1.86,2.32-.16.4-.45,1.03-.18,1.44s.78.29,1.1.04c.39-.3.7-.73.93-1.16.2-.38.54-1.02.35-1.45s-.82-.47-1.22-.42c-.53.06-1.01.32-1.39.68-.61.57-1.32,1.63-.97,2.51.43,1.07,1.79.66,2.48.14.84-.65,1.46-1.62,1.88-2.59.22-.52.39-1.05.49-1.6.09-.49.18-1.03,0-1.5-.39-1.04-1.64-.85-2.37-.31-.86.63-1.39,1.71-1.79,2.68-.37.91-.72,2.13-.28,3.07.18.39.51.68.95.72.51.04.94-.29,1.27-.65.8-.9,1.5-1.93,2.15-2.94.34-.53.67-1.07.98-1.63.24-.42-.41-.8-.65-.38-.85,1.49-1.8,2.95-2.9,4.27-.18.21-.47.62-.8.58s-.42-.49-.44-.76c-.06-.81.23-1.67.57-2.39.3-.65.66-1.35,1.2-1.84.25-.23.59-.44.94-.44.46,0,.52.42.5.79-.09,1.5-.85,3.1-1.94,4.13-.26.24-.57.47-.92.55-.39.09-.72-.05-.66-.49.08-.64.66-1.37,1.21-1.67.18-.1.38-.17.58-.19.09,0,.18,0,.28,0,.07,0,.21.11.17,0-.05-.12-.07.1-.08.14-.03.1-.06.2-.1.29-.07.18-.17.35-.27.52s-.22.32-.35.47c-.09.1-.29.22-.35.32l.05.03c.06.06.09.03.08-.09.03-.06.04-.16.06-.23.06-.2.13-.4.22-.59.31-.65.77-1.23,1.35-1.67.23-.17.51-.39.81-.41.07,0,.14-.02.17.04.06.12-.15.53-.19.67-.49,1.43-1.32,2.75-2.4,3.82-.58.58-1.38,1.3-2.12.52-.61-.64-.44-1.7-.13-2.45.59-1.4,2-2.4,3.51-2.48.48-.03.48-.78,0-.75h0Z"/><path class="cls-26" d="M52.87,57.5c.02.81.14,1.61.36,2.39.05.19.27.32.46.26s.32-.26.26-.46c-.21-.74-.32-1.43-.34-2.19,0-.2-.17-.38-.38-.38s-.38.16-.38.38h0Z"/><path class="cls-26" d="M50.03,60.83h2.49c.2,0,.38-.17.38-.38s-.16-.38-.38-.38h-2.49c-.2,0-.38.17-.38.38s.16.38.38.38h0Z"/><path class="cls-26" d="M52.68,63.27c.6-.58,1.12-1.23,1.55-1.94.1-.17.04-.42-.13-.51s-.4-.04-.51.13c-.1.17-.21.33-.32.49-.06.08-.12.16-.18.24-.01.02-.03.04-.04.05-.02.02-.04.06-.01.02-.03.04-.06.08-.09.12-.25.31-.51.6-.79.87-.14.14-.15.39,0,.53s.38.15.53,0h0Z"/><path class="cls-26" d="M55,63.88c.72-.6,1.35-1.28,1.91-2.04.12-.16.03-.43-.13-.51-.2-.1-.39-.03-.51.13-.03.05-.07.09-.11.14-.02.02-.03.04,0,0-.02.02-.04.05-.05.07-.07.09-.14.17-.21.26-.14.17-.29.34-.44.5-.31.32-.63.63-.97.91-.15.13-.14.4,0,.53.16.15.37.13.53,0h0Z"/><path class="cls-26" d="M56.85,64.32c.28-.07.51-.25.73-.44s.42-.37.63-.56c.41-.38.82-.77,1.21-1.17.14-.14.14-.39,0-.53s-.39-.14-.53,0c-.37.38-.76.75-1.15,1.11-.19.18-.38.35-.58.52-.05.04-.1.09-.15.13s-.07.06-.1.08c-.04.03-.09.06-.14.09l-.04.02s.02,0,0,0c-.03.01-.06.02-.1.03-.19.05-.32.27-.26.46.06.2.26.31.46.26h0Z"/><path class="cls-26" d="M59.43,64.55c1.05-.5,2.13-1.17,2.65-2.25.09-.18.05-.41-.13-.51-.16-.1-.42-.05-.51.13-.06.12-.12.24-.2.35-.04.06-.08.12-.12.17.03-.04-.01.02-.02.03-.02.02-.04.05-.06.07-.09.1-.18.2-.28.29-.05.04-.1.09-.14.13-.02.02-.05.04-.07.06,0,0-.09.07-.05.04-.44.34-.93.6-1.43.84-.18.09-.23.35-.13.51.11.19.33.22.51.13h0Z"/><path class="cls-26" d="M63.38,64.56c.49-.78,1-1.49,1.59-2.18.13-.15.16-.39,0-.53-.14-.13-.39-.16-.53,0-.62.73-1.2,1.51-1.7,2.33-.1.17-.04.42.13.51s.4.04.51-.13h0Z"/><path class="cls-26" d="M66.11,64.65c.64-.78,1.32-1.52,2.04-2.24.14-.14.15-.39,0-.53s-.38-.15-.53,0c-.71.71-1.39,1.46-2.04,2.24-.13.15-.16.38,0,.53.14.13.4.16.53,0h0Z"/><path class="cls-26" d="M69.64,64.56c.53-.75,1.13-1.47,1.8-2.15.14-.14.15-.39,0-.53s-.38-.15-.53,0c-.7.71-1.34,1.48-1.91,2.3-.11.16-.03.42.13.51.19.1.39.04.51-.13h0Z"/><path class="cls-26" d="M73.51,64.66c.66-.71,1.26-1.48,1.79-2.3.11-.16.04-.42-.13-.51-.19-.1-.4-.04-.51.13-.51.78-1.04,1.45-1.67,2.14-.13.14-.15.39,0,.53.14.13.39.15.53,0h0Z"/><path class="cls-26" d="M76.88,64.56c.46-.71.9-1.43,1.33-2.16.1-.17.05-.42-.13-.51s-.41-.05-.51.13c-.42.73-.86,1.46-1.33,2.16-.11.16-.04.42.13.51.19.1.4.04.51-.13h0Z"/><path class="cls-26" d="M79.78,64.57c.44-.75.89-1.5,1.33-2.26.1-.17.04-.42-.13-.51s-.41-.05-.51.13c-.44.75-.89,1.5-1.33,2.26-.1.17-.04.42.13.51s.41.05.51-.13h0Z"/><path class="cls-26" d="M83.04,64.58c.5-.74.91-1.53,1.24-2.36.07-.18-.08-.42-.26-.46-.22-.05-.38.07-.46.26-.14.34-.32.74-.52,1.09s-.42.73-.65,1.08c-.11.16-.04.42.13.51.19.1.4.04.51-.13h0Z"/><path class="cls-26" d="M85.78,64.64c.47-.72.8-1.53.97-2.37.04-.19-.06-.41-.26-.46-.19-.04-.42.06-.46.26-.16.81-.44,1.5-.9,2.19-.11.16-.04.42.13.51.19.1.4.04.51-.13h0Z"/><path class="cls-26" d="M88.26,64.5l.69-2.24c.06-.19-.07-.42-.26-.46-.2-.05-.4.06-.46.26l-.69,2.24c-.06.19.07.42.26.46.2.05.4-.06.46-.26h0Z"/><path class="cls-26" d="M90.34,64.52c.12-.76.31-1.5.58-2.22.07-.18-.08-.42-.26-.46-.21-.05-.39.07-.46.26-.27.72-.47,1.46-.58,2.22-.03.19.05.41.26.46.18.04.43-.05.46-.26h0Z"/><path class="cls-26" d="M92.25,64.5c.13-.42.25-.74.45-1.12s.42-.73.68-1.07c.12-.16.03-.43-.13-.51-.2-.1-.39-.03-.51.13-.54.71-.94,1.51-1.2,2.37-.06.19.07.42.26.46s.4-.06.46-.26h0Z"/><path class="cls-26" d="M95.09,64.48c.05-.21.12-.41.2-.61,0,0,.03-.07.02-.04-.01.03.03-.06.03-.06.02-.04.04-.09.06-.13.05-.1.1-.2.16-.29.05-.09.11-.18.17-.26.03-.05.06-.09.1-.13.01-.02.03-.04.04-.06-.02.03,0,0,0-.01.14-.17.29-.33.45-.48.14-.13.15-.4,0-.53-.15-.14-.38-.14-.53,0-.69.65-1.19,1.49-1.41,2.41-.05.19.06.42.26.46s.41-.06.46-.26h0Z"/><path class="cls-26" d="M97.98,64.55c.48-.85,1.05-1.55,1.8-2.2.15-.13.14-.4,0-.53-.16-.15-.37-.14-.53,0-.76.67-1.41,1.47-1.91,2.35-.1.17-.05.42.13.51s.41.05.51-.13h0Z"/><path class="cls-26" d="M100.87,64.6c.61-.74,1.24-1.47,1.89-2.17.13-.14.15-.39,0-.53-.14-.13-.39-.15-.53,0-.65.71-1.28,1.43-1.89,2.17-.12.15-.16.38,0,.53.14.13.4.16.53,0h0Z"/><path class="cls-26" d="M103.71,64.67c.7-.71,1.33-1.48,1.88-2.31.11-.16.04-.42-.13-.51-.19-.1-.4-.04-.51.13-.27.4-.53.75-.81,1.1s-.62.72-.95,1.05c-.14.14-.15.39,0,.53s.38.15.53,0h0Z"/><path class="cls-26" d="M106.96,64.77c.56-.17.99-.58,1.4-.98s.82-.85,1.21-1.31c.13-.15.15-.38,0-.53-.13-.13-.4-.16-.53,0-.36.43-.74.84-1.14,1.24-.18.18-.37.36-.56.53-.15.13-.38.26-.57.32s-.32.26-.26.46.27.32.46.26h0Z"/><path class="cls-26" d="M110.89,64.77c.91-.67,1.67-1.51,2.24-2.49.1-.17.04-.42-.13-.51s-.41-.05-.51.13c-.13.22-.27.44-.42.65-.08.11-.12.16-.19.26-.08.1-.17.2-.26.3-.17.19-.35.37-.53.54-.1.09-.2.18-.3.26-.11.09-.17.14-.27.21-.16.12-.25.33-.13.51.1.16.34.26.51.13h0Z"/><path class="cls-26" d="M114.94,64.74c.43-.32.83-.68,1.17-1.1.17-.21.34-.44.49-.67.07-.11.13-.22.19-.33.04-.07.08-.14.11-.22.05-.14-.03-.28-.09-.4-.08-.18-.36-.23-.51-.13-.19.12-.22.32-.13.51.02.04.03.08.05.11v-.38c-.1.2-.22.39-.34.58-.06.09-.12.18-.19.27-.01.02-.05.07-.02.03-.02.02-.03.04-.05.06-.04.05-.08.09-.12.14-.14.17-.29.33-.45.48-.08.08-.17.16-.26.23-.04.04-.08.07-.13.1-.02.01-.04.03-.01,0-.03.02-.06.04-.09.07-.16.12-.25.33-.13.51.1.16.34.26.51.13h0Z"/><path class="cls-26" d="M118.65,64.65c.73-.64,1.34-1.43,1.78-2.29.09-.17.05-.41-.13-.51-.17-.09-.42-.05-.51.13-.11.21-.22.41-.34.6-.06.1-.12.19-.19.28-.03.05-.07.09-.1.14-.02.03-.04.05-.06.08,0,0-.05.07-.02.03-.29.37-.61.7-.95,1.01-.15.13-.14.4,0,.53.16.14.37.14.53,0h0Z"/><path class="cls-26" d="M122.26,64.65c.62-.78,1.19-1.6,1.7-2.46.1-.17.04-.42-.13-.51s-.41-.05-.51.13c-.47.81-1.01,1.6-1.58,2.31-.12.15-.16.38,0,.53.14.12.4.16.53,0h0Z"/><path class="cls-26" d="M125.42,64.46c.64-.75,1.23-1.54,1.78-2.36.11-.16.04-.42-.13-.51-.19-.1-.4-.04-.51.13-.52.79-1.05,1.5-1.66,2.21-.13.15-.16.39,0,.53.14.13.39.16.53,0h0Z"/><path class="cls-26" d="M128.96,64.34c.55-.8,1.12-1.58,1.69-2.36.12-.16.03-.43-.13-.51-.2-.1-.39-.03-.51.13-.58.78-1.14,1.56-1.69,2.36-.11.16-.04.42.13.51.19.1.39.04.51-.13h0Z"/><path class="cls-26" d="M132.35,64.33c.52-.74,1.04-1.47,1.56-2.21.11-.16.03-.42-.13-.51-.19-.1-.39-.04-.51.13-.52.74-1.04,1.47-1.56,2.21-.11.16-.03.42.13.51.19.1.39.04.51-.13h0Z"/><path class="cls-26" d="M135.45,64.53c.61-.76,1.18-1.55,1.7-2.37.1-.17.04-.42-.13-.51-.18-.1-.4-.04-.51.13-.49.77-1.02,1.53-1.58,2.22-.12.15-.16.38,0,.53.14.13.4.16.53,0h0Z"/><path class="cls-26" d="M139.39,64.48c.42-.73.85-1.46,1.27-2.19.1-.17.04-.42-.13-.51s-.41-.05-.51.13c-.42.73-.85,1.46-1.27,2.19-.1.17-.04.42.13.51s.41.05.51-.13h0Z"/><path class="cls-26" d="M142.76,64.59c.51-.66.98-1.36,1.39-2.09.1-.17.05-.42-.13-.51s-.41-.05-.51.13c-.42.73-.88,1.42-1.39,2.09-.12.16-.03.43.13.51.2.11.38.03.51-.13h0Z"/><path class="cls-26" d="M145.73,64.65c.49-.71.93-1.44,1.32-2.2.09-.17.05-.42-.13-.51-.17-.09-.42-.05-.51.13-.4.76-.84,1.5-1.32,2.2-.11.16-.04.42.13.51.19.1.39.04.51-.13h0Z"/><path class="cls-26" d="M148.5,64.85c.65-.72,1.16-1.54,1.51-2.44.07-.18-.08-.42-.26-.46-.22-.05-.38.07-.46.26-.02.05-.04.1-.06.15,0,.01-.02.05,0,.02-.01.03-.03.06-.04.09-.04.1-.09.19-.13.28-.1.2-.21.39-.32.58-.24.39-.45.67-.76,1-.13.14-.15.39,0,.53.14.13.39.15.53,0h0Z"/><path class="cls-26" d="M151.95,64.76c.57-.69,1.13-1.38,1.7-2.07.12-.15.16-.38,0-.53-.14-.13-.4-.16-.53,0-.57.69-1.13,1.38-1.7,2.07-.12.15-.16.38,0,.53.14.13.4.16.53,0h0Z"/><path class="cls-26" d="M156.44,64.69c.24-.39.49-.77.75-1.15s.53-.73.79-1.06c.12-.15.16-.38,0-.53-.14-.12-.4-.16-.53,0-.6.76-1.15,1.54-1.66,2.36-.1.17-.04.42.13.51s.4.04.51-.13h0Z"/><path class="cls-26" d="M160.29,64.59l.48-.81c.05-.08.06-.2.04-.29-.02-.09-.09-.18-.17-.22-.18-.1-.41-.05-.51.13-.16.27-.32.54-.48.81-.05.08-.06.2-.04.29.02.09.09.18.17.22.18.1.41.05.51-.13h0Z"/><path class="cls-26" d="M160.79,63.73c.39-.45.72-.96.95-1.51.04-.1.07-.18.04-.29-.02-.09-.09-.18-.17-.22-.09-.05-.19-.07-.29-.04-.09.03-.19.09-.22.17-.11.26-.24.5-.38.74-.07.11-.15.23-.23.34-.02.03-.04.05-.06.08-.04.06.03-.04,0,0-.01.01-.02.03-.03.04-.04.06-.09.11-.14.17-.13.15-.16.39,0,.53.14.13.39.16.53,0h0Z"/><path class="cls-26" d="M163.6,64.32c.4-.76.8-1.52,1.2-2.28.09-.17.05-.42-.13-.51-.17-.09-.42-.05-.51.13-.4.76-.8,1.52-1.2,2.28-.09.17-.05.42.13.51.17.09.42.05.51-.13h0Z"/><path class="cls-26" d="M166.74,64.02c.43-.78.85-1.56,1.28-2.34.09-.17.05-.42-.13-.51s-.41-.05-.51.13c-.43.78-.85,1.56-1.28,2.34-.09.17-.05.42.13.51s.41.05.51-.13h0Z"/><path class="cls-26" d="M169.97,63.63c.47-.87.99-1.72,1.55-2.54.12-.17.03-.42-.13-.51-.19-.11-.4-.03-.51.13-.56.82-1.08,1.66-1.55,2.54-.1.18-.04.41.13.51s.42.04.51-.13h0Z"/><path class="cls-26" d="M173.4,63.23c.56-.84,1.12-1.68,1.68-2.53.11-.17.03-.42-.13-.51-.18-.11-.4-.03-.51.13-.56.84-1.12,1.68-1.68,2.53-.11.17-.03.42.13.51.18.11.4.03.51-.13h0Z"/><path class="cls-26" d="M177.77,62.56c.47-.85.98-1.68,1.51-2.49.11-.17.03-.41-.13-.51-.18-.11-.4-.04-.51.13-.53.81-1.04,1.64-1.51,2.49-.1.18-.04.41.13.51s.41.04.51-.13h0Z"/><path class="cls-26" d="M181.48,62.06c.61-.78,1.15-1.59,1.62-2.46.09-.17.05-.42-.13-.51s-.41-.05-.51.13c-.22.41-.46.82-.72,1.21s-.53.77-.79,1.1c-.12.15-.16.38,0,.53.13.12.4.16.53,0h0Z"/><path class="cls-26" d="M184.83,61.51c.21-.85.53-1.61,1-2.36.11-.17.04-.41-.13-.51-.18-.11-.41-.04-.51.13-.49.78-.85,1.64-1.07,2.54-.05.19.06.42.26.46s.41-.06.46-.26h0Z"/><path class="cls-26" d="M189.66,55.18c0,.2,0,.41,0,.61,0,.1.04.2.11.27s.17.11.27.11.2-.04.27-.11.11-.16.11-.27c0-.2,0-.41,0-.61,0-.1-.04-.2-.11-.27s-.17-.11-.27-.11-.2.04-.27.11-.11.16-.11.27h0Z"/><path class="cls-26" d="M189.69,56.02c-.1.44-.23.87-.38,1.29-.07.18.07.42.26.46.21.05.39-.06.46-.26.15-.42.28-.85.38-1.29.04-.19-.06-.42-.26-.46-.19-.04-.41.06-.46.26h0Z"/><path class="cls-26" d="M187.76,58.57c-.06.79-.31,1.59-.71,2.3-.1.18-.04.41.13.51s.41.04.51-.13c.47-.82.74-1.73.82-2.67.02-.2-.18-.38-.38-.38-.22,0-.36.17-.38.38h0Z"/><path class="cls-26" d="M192.6,65.3c.24-.32.47-.64.71-.96.05-.07.06-.2.04-.29s-.09-.18-.17-.22c-.09-.05-.19-.07-.29-.04s-.16.09-.22.17c-.24.32-.47.64-.71.96-.05.07-.06.2-.04.29s.09.18.17.22c.09.05.19.07.29.04s.16-.09.22-.17h0Z"/><path class="cls-26" d="M193.31,64.28c.18-.21.35-.42.53-.63.04-.03.06-.07.08-.12.02-.04.03-.09.03-.14,0-.09-.04-.2-.11-.27s-.17-.11-.27-.11c-.09,0-.2.03-.27.11-.18.21-.35.42-.53.63-.04.03-.06.07-.08.12-.02.04-.03.09-.03.14,0,.09.04.2.11.27s.17.11.27.11c.09,0,.2-.03.27-.11h0Z"/><path class="cls-26" d="M193.55,67.28c.04-.06.09-.13.13-.19.02-.03.05-.06.07-.09,0,.01-.05.06-.02.02.01-.02.03-.04.04-.05.09-.12.19-.23.3-.34s.21-.21.33-.31c.06-.05.12-.1.18-.15.03-.02.05-.04.08-.06.04-.03-.07.05-.01,0,.02-.01.04-.03.06-.04.08-.06.14-.12.17-.22.02-.09.01-.21-.04-.29-.1-.16-.34-.26-.51-.13-.56.41-1.04.91-1.43,1.49-.11.16-.04.42.13.51.19.1.4.04.51-.13h0Z"/><path class="cls-26" d="M194.78,69.74c.37-.43.75-.83,1.17-1.21.14-.13.15-.4,0-.53-.15-.14-.38-.14-.53,0-.41.38-.8.79-1.17,1.21-.07.08-.11.16-.11.27,0,.09.04.2.11.27.14.13.39.16.53,0h0Z"/><path class="cls-26" d="M195.56,72.91c.08-.24.14-.37.25-.59s.23-.42.36-.63.23-.34.38-.52.32-.36.5-.52c.15-.14.14-.39,0-.53-.15-.15-.38-.14-.53,0-.76.71-1.33,1.6-1.68,2.59-.06.19.07.42.26.46.21.05.39-.06.46-.26h0Z"/><path class="cls-26" d="M196.27,75.99c.05-.2.16-.36.28-.56.13-.2.26-.41.39-.61.27-.41.55-.81.84-1.2.12-.16.03-.42-.13-.51-.19-.11-.39-.03-.51.13-.3.4-.59.82-.87,1.24s-.59.83-.72,1.3c-.05.19.06.42.26.46s.41-.06.46-.26h0Z"/><path class="cls-26" d="M196.93,78.83c.49-.82,1.02-1.63,1.61-2.37.13-.16.15-.38,0-.53-.13-.13-.4-.16-.53,0-.64.8-1.21,1.65-1.73,2.53-.1.17-.04.41.13.51s.41.04.51-.13h0Z"/><path class="cls-26" d="M197.85,81.35c.11-.19.23-.38.35-.55.03-.04.06-.08.09-.12.02-.03.04-.05.06-.08-.02.03-.02.02,0,0,.07-.09.14-.18.21-.26.29-.33.61-.63.95-.9.16-.12.14-.4,0-.53-.16-.15-.36-.13-.53,0-.72.57-1.33,1.28-1.79,2.08-.1.17-.05.42.13.51s.41.05.51-.13h0Z"/><path class="cls-26" d="M199.25,84.35c.02-.05.04-.11.06-.16.01-.03.02-.06.04-.09-.02.04,0,0,0-.01.05-.1.09-.21.15-.31.1-.2.22-.4.35-.59.06-.09.12-.18.19-.26.02-.02.02-.02,0,0l.02-.03s.03-.04.05-.06c.04-.04.07-.09.11-.13.15-.18.32-.34.49-.5.15-.13.14-.4,0-.53-.16-.14-.37-.14-.53,0-.74.67-1.3,1.53-1.65,2.47-.07.18.08.42.26.46.21.05.39-.06.46-.26h0Z"/><path class="cls-26" d="M200.98,87.49c.08-.22.14-.36.23-.56.09-.19.18-.38.28-.56.2-.38.43-.75.68-1.1.11-.16.03-.42-.13-.51-.19-.1-.39-.04-.51.13-.52.74-.94,1.55-1.26,2.4-.07.18.08.42.26.46.21.05.39-.06.46-.26h0Z"/><path class="cls-26" d="M202.99,90.09c-.03-.41.21-.82.38-1.19.2-.44.4-.88.59-1.32.08-.18.05-.4-.13-.51-.16-.09-.43-.05-.51.13-.21.47-.43.95-.64,1.42s-.47.95-.44,1.47c.01.2.16.38.38.38.19,0,.39-.17.38-.38h0Z"/><path class="cls-26" d="M204.96,92.27c.05-.45.16-.92.33-1.35.08-.21.17-.41.28-.6.12-.24.25-.48.23-.76-.02-.2-.16-.38-.38-.38-.19,0-.39.17-.38.38,0,.1,0,.15-.06.25s-.11.2-.16.3c-.11.23-.21.46-.3.7-.17.47-.27.96-.32,1.46-.02.2.19.38.38.38.22,0,.35-.17.38-.38h0Z"/><path class="cls-26" d="M207.36,93.95c-.03-.81.07-1.57.3-2.34.06-.19-.07-.42-.26-.46-.2-.05-.4.06-.46.26-.25.82-.36,1.68-.33,2.54,0,.2.17.38.38.38.2,0,.38-.17.38-.38h0Z"/><path class="cls-26" d="M209.26,95.23c.04-.37.09-.71.17-1.09s.18-.75.29-1.12c.06-.19-.07-.42-.26-.46-.2-.05-.4.06-.46.26-.25.78-.4,1.59-.49,2.41-.02.2.19.38.38.38.22,0,.35-.17.38-.38h0Z"/><path class="cls-26" d="M195.79,60.32s-.02-.08-.03-.12c0,0-.01-.1,0-.04,0,.05,0-.02,0-.03,0-.09-.01-.17,0-.26,0-.04,0-.08,0-.12,0-.02,0-.04,0-.06,0,.09,0,.01,0,0,.01-.09.03-.17.06-.26.01-.04.02-.08.04-.12,0-.02.05-.12.02-.05.04-.08.07-.16.12-.23.02-.04.05-.08.07-.12.01-.02.02-.03.04-.05.02-.03.02-.02,0,0,.06-.07.12-.14.19-.2.14-.14.15-.4,0-.53s-.38-.15-.53,0c-.64.61-.9,1.55-.7,2.4.04.19.27.32.46.26.2-.06.31-.26.26-.46h0Z"/><path class="cls-26" d="M197.58,61.38s.03-.09.05-.13c0-.03.02-.05.03-.08.03-.07-.02.04,0,0,.04-.09.08-.18.13-.27s.1-.16.15-.24c.01-.02.03-.04.04-.06.03-.04.02-.04,0,0,.02-.04.07-.08.1-.12.06-.07.13-.14.2-.21.04-.04.08-.07.12-.1.02-.02.04-.03.05-.05.01-.01.07-.06,0,0,.16-.14.37-.24.56-.35.17-.09.24-.35.13-.51-.11-.18-.33-.23-.51-.13-.41.22-.8.48-1.1.84s-.54.76-.68,1.21c-.06.19.07.42.26.46.2.05.4-.06.46-.26h0Z"/><path class="cls-26" d="M199.14,62.59l1-.71c.16-.11.31-.23.47-.34.07-.05.15-.1.23-.14.04-.02.04-.02,0,0,.02,0,.04-.01.06-.02.04,0,.04-.01,0,0,.02,0,.04,0,.07,0,.2,0,.38-.17.38-.38s-.16-.38-.38-.38c-.45,0-.8.31-1.14.56l-1.06.75c-.16.11-.25.33-.13.51.1.16.34.26.51.13h0Z"/><path class="cls-26" d="M200.5,63.82c.14-.12.29-.25.44-.36.02-.01.04-.03.05-.04-.03.02-.02.02,0,0,.04-.03.08-.06.12-.09.08-.05.16-.11.24-.16.07-.05.15-.09.23-.13.04-.02.09-.04.13-.07,0,0,.07-.03.03-.01s.02,0,.03-.01c.09-.03.17-.06.26-.09.05-.01.09-.02.14-.03.02,0,.04,0,.06-.01.06-.01-.09,0,.01,0,.19-.02.38-.16.38-.38,0-.19-.17-.4-.38-.38-.91.09-1.62.65-2.28,1.23-.15.13-.14.4,0,.53.16.15.37.14.53,0h0Z"/><path class="cls-26" d="M201.29,66.06l1.44-.1c.24-.02.48-.03.72-.05.08,0,.17,0,.25,0s0,0,.06,0c.04.01.05.02.02,0,.04.02.04.03.02,0,.16.13.38.15.53,0,.13-.13.16-.4,0-.53-.41-.34-.94-.23-1.44-.2l-1.61.11c-.2.01-.38.16-.38.38,0,.19.17.39.38.38h0Z"/><path class="cls-26" d="M202.46,67.74c.11,0,.21,0,.32.01.05,0,.11,0,.16.02-.06,0,.05,0,.06,0,.2.03.4.08.6.15.09.03.19.06.28.1-.04-.02.08.04.09.04.04.02.08.04.13.06.18.09.36.2.53.32s.42.03.51-.13c.1-.19.04-.39-.13-.51-.73-.53-1.64-.81-2.54-.82-.2,0-.38.17-.38.38s.16.37.38.38h0Z"/><path class="cls-26" d="M203.21,69.99c.89-.04,1.74.21,2.47.72.17.12.42.03.51-.13.11-.19.03-.4-.13-.51-.83-.57-1.85-.87-2.85-.82-.2,0-.38.17-.38.38,0,.2.17.38.38.38h0Z"/><path class="cls-26" d="M204.07,72.57c.96-.12,1.88.23,2.51.95.13.15.39.14.53,0,.15-.15.13-.38,0-.53-.74-.85-1.92-1.31-3.04-1.17-.2.02-.38.15-.38.38,0,.18.17.4.38.38h0Z"/><path class="cls-26" d="M205.25,75.32c1.06.11,2.06.67,2.75,1.5.13.16.4.13.53,0,.15-.15.13-.37,0-.53-.82-.98-2.02-1.58-3.28-1.72-.2-.02-.38.19-.38.38,0,.22.17.35.38.38h0Z"/><path class="cls-26" d="M206.53,78.66c.93-.02,1.88.27,2.63.85.16.12.37.16.53,0,.13-.13.16-.41,0-.53-.91-.7-2.01-1.09-3.16-1.07-.48.01-.48.76,0,.75h0Z"/><path class="cls-26" d="M208.88,82.65c.78-.06,1.57-.11,2.35-.16.2-.01.38-.16.38-.38,0-.19-.17-.39-.38-.38-.78.05-1.57.1-2.35.16-.2.02-.38.16-.38.38,0,.19.17.39.38.38h0Z"/><path class="cls-26" d="M211.34,85.19l2.46-.14c.2-.01.38-.16.38-.38,0-.19-.17-.39-.38-.38l-2.46.14c-.2.01-.38.16-.38.38,0,.19.17.39.38.38h0Z"/><path class="cls-26" d="M214.65,87.68c.22-.3.6-.5.96-.61.49-.14,1-.15,1.51-.17.2,0,.38-.17.38-.38s-.17-.38-.38-.38c-.6.02-1.22.03-1.79.22-.53.17-.99.47-1.33.93-.12.16-.03.42.13.51.19.11.39.03.51-.13h0Z"/><path class="cls-26" d="M217.96,89.73c.02-.1.05-.21.09-.31,0-.03.02-.05.03-.07.01-.04-.02.05,0-.01.02-.05.05-.1.07-.14.05-.09.1-.19.16-.28.03-.04.06-.09.09-.13.04-.06-.02.02.01-.01.02-.02.03-.04.05-.06.14-.16.28-.32.44-.46.08-.07.17-.14.25-.21.03-.03-.04.03.01-.01.02-.02.04-.03.07-.05.05-.04.1-.07.15-.1.16-.11.25-.33.13-.51-.1-.16-.34-.25-.51-.13-.81.56-1.55,1.32-1.78,2.3-.04.19.06.41.26.46.19.04.41-.06.46-.26h0Z"/><path class="cls-14" d="M63.54,50.88c1,.78,1.85,1.71,2.48,2.81.31.53.56,1.08.76,1.66.11.34.21.68.3,1.02.05.17.09.35.13.52.02.08.03.18.06.26.01.03.02.06.02.1,0,.19.12.1.36-.27-.4.03-.75.32-.75.75,0,.38.34.78.75.75.5-.04.93-.32,1.08-.83s-.04-1.01-.16-1.48c-.22-.86-.49-1.7-.88-2.5-.71-1.5-1.8-2.83-3.11-3.85-.32-.25-.75-.31-1.06,0-.26.26-.32.81,0,1.06h0Z"/><path class="cls-14" d="M68.12,50.7c.98.86,1.99,1.74,2.71,2.84.36.55.64,1.15.85,1.77.11.32.21.65.29.98.08.3.21.63.11.94l.92-.52c-.11-.03-.23-.06-.34-.09-.94-.24-1.33,1.2-.4,1.45.11.03.23.06.34.09.4.1.8-.13.92-.52.25-.78-.07-1.66-.3-2.41s-.55-1.54-.97-2.23c-.79-1.31-1.94-2.35-3.07-3.35-.3-.27-.76-.3-1.06,0-.27.27-.3.79,0,1.06h0Z"/><path class="cls-14" d="M65.43,75.68c-2.39.82-4.78,1.65-7.17,2.47-1.18.41-2.37.81-3.55,1.22-.72.25-2.04.5-2.28,1.36-.09.33.03.65.16.94.27.6.57,1.19.82,1.8.43,1.05.8,2.13,1.11,3.23s.53,2.11.7,3.18c.1.6.17,1.2.23,1.8.04.43.26,1.29-.01,1.66-.58.77.72,1.52,1.3.76.52-.7.28-1.77.2-2.57-.1-1.04-.26-2.09-.46-3.11-.42-2.09-1.08-4.13-1.93-6.09-.08-.19-.49-1.33-.68-1.02.15-.25,1.28-.48,1.55-.58,1.14-.39,2.28-.79,3.42-1.18,2.34-.8,4.67-1.61,7.01-2.41.91-.31.52-1.76-.4-1.45h0Z"/><path class="cls-14" d="M172.66,56.14c-.07-.61,0-1.24.27-1.79.32-.64.85-1.12,1.35-1.62,1.13-1.13,2.27-2.27,3.4-3.4.68-.68-.38-1.74-1.06-1.06-1.23,1.23-2.47,2.47-3.7,3.7-.55.55-1.07,1.12-1.39,1.84s-.46,1.53-.37,2.33c.05.4.31.75.75.75.37,0,.8-.34.75-.75h0Z"/><path class="cls-14" d="M177.52,56.57c.51-1.23,1.14-2.41,1.83-3.55.14-.22.27-.47.45-.65.18-.17.46-.25.68-.38.25-.15.45-.34.65-.55.09-.1.18-.19.28-.28-.06.05-.01,0,.03,0-.06.02-.18.03-.04.04.4.03.75-.36.75-.75,0-.43-.34-.72-.75-.75s-.75.15-1.05.4c-.2.17-.35.4-.56.56-.16.12-.56.26-.79.43-.32.24-.56.55-.77.89-.84,1.32-1.55,2.73-2.15,4.18-.16.37.17.83.52.92.43.12.77-.15.92-.52h0Z"/><path class="cls-14" d="M167.26,68.24h15.04c.97,0,.97-1.5,0-1.5h-15.04c-.97,0-.97,1.5,0,1.5h0Z"/><path class="cls-14" d="M174.01,72.44c1.56-.21,3.15.1,4.7.26.76.08,1.52.13,2.28.1.63-.02,1.31-.11,1.88.23.83.49,1.59-.8.76-1.3-.69-.41-1.47-.47-2.25-.45-.84.03-1.65.02-2.49-.06-1.77-.18-3.5-.47-5.28-.23-.4.05-.62.57-.52.92.12.43.52.58.92.52h0Z"/><path class="cls-14" d="M177.16,77.68h9.45c.97,0,.97-1.5,0-1.5h-9.45c-.97,0-.97,1.5,0,1.5h0Z"/><path class="cls-14" d="M188.11,113.52c3.97,4.42,7.54,9.16,10.72,14.18l.45-1.1c-1.36.49-2.76.51-4.07,1.21-1.18.63-2.21,1.55-3.15,2.49-2.34,2.37-4.35,5.07-6.46,7.64-.61.74.45,1.81,1.06,1.06,1.92-2.35,3.78-4.77,5.84-7,.93-1.01,1.93-2,3.11-2.71,1.3-.78,2.67-.76,4.05-1.26.44-.16.72-.67.45-1.1-3.24-5.13-6.89-9.97-10.95-14.48-.65-.72-1.71.34-1.06,1.06h0Z"/><path class="cls-14" d="M128.49,187.85c1.58,2.28,3.41,4.37,5.09,6.58,1.35,1.78,2.34,4.25,4.33,5.4.28.16.68.12.91-.12,1.89-1.98,3.79-3.95,5.89-5.71s4.42-3.28,6.7-4.81c.8-.53.05-1.83-.76-1.3-2.29,1.52-4.57,3.05-6.7,4.79s-4.21,3.89-6.2,5.96l.91-.12c-.99-.57-1.51-1.52-2.1-2.45-.63-.99-1.33-1.95-2.05-2.88-1.57-2.04-3.26-3.99-4.73-6.11-.55-.79-1.85-.04-1.3.76h0Z"/><path class="cls-14" d="M62.32,187.14c-2.47-1.16-4.55-2.73-6.66-4.44-2.31-1.87-4.62-3.74-6.93-5.62-.37-.3-.53-.31-.5-.76.02-.31.23-.64.35-.92.28-.63.57-1.26.87-1.88.59-1.26,1.21-2.5,1.84-3.74,1.29-2.5,2.66-4.95,4.12-7.36.5-.83-.8-1.58-1.3-.76-1.65,2.74-3.21,5.54-4.64,8.39-.69,1.38-1.36,2.77-1.99,4.17-.4.88-1.31,2.17-.69,3.13.32.5,1.01.89,1.46,1.26.64.52,1.28,1.04,1.92,1.56,1.28,1.04,2.57,2.08,3.85,3.12,2.4,1.94,4.73,3.82,7.54,5.14.87.41,1.63-.88.76-1.3h0Z"/><path class="cls-14" d="M185.7,184.32c2.93-.71,5.77-2.77,8.22-4.46s4.54-3.58,6.4-5.8c3.87-4.62,6.9-9.99,9.1-15.58.71-1.8-2.19-2.58-2.89-.8-2,5.08-4.82,10.07-8.33,14.26-1.69,2.02-3.62,3.83-5.79,5.33-1.16.8-2.36,1.53-3.57,2.25s-2.49,1.57-3.94,1.91c-1.88.45-1.08,3.35.8,2.89h0Z"/><path class="cls-14" d="M210.29,151.25v-7.35c0-.78-.69-1.54-1.5-1.5s-1.5.66-1.5,1.5v7.35c0,.78.69,1.54,1.5,1.5s1.5-.66,1.5-1.5h0Z"/><path class="cls-14" d="M39.08,101.41c-2.33,2.49-3.53,5.66-4.54,8.87-1.1,3.5-1.79,7.12-2.06,10.78-.13,1.82-.1,3.63-.09,5.46,0,1.91-.3,3.7-.61,5.58-.63,3.89.33,7.34,1.63,10.98.64,1.81,3.54,1.03,2.89-.8-1.2-3.37-2.16-6.49-1.51-10.09.3-1.64.56-3.26.59-4.94.02-1.76-.06-3.51.03-5.27.17-3.31.75-6.58,1.67-9.76s1.9-6.32,4.12-8.7c1.32-1.41-.8-3.54-2.12-2.12h0Z"/><path class="cls-14" d="M31.97,149.7c-.33,2.77.27,5.58.7,8.31s.94,5.51,1.73,8.19c.55,1.85,3.44,1.06,2.89-.8-.77-2.58-1.27-5.23-1.68-7.88s-.95-5.21-.64-7.82c.1-.81-.76-1.5-1.5-1.5-.89,0-1.4.69-1.5,1.5h0Z"/><path class="cls-14" d="M68.92,69.88c3.67-.32,7.28.38,10.92.71s7.18.4,10.76.71c1.92.17,1.91-2.84,0-3-3.58-.31-7.18-.39-10.76-.71s-7.25-1.03-10.92-.71c-1.91.17-1.93,3.17,0,3h0Z"/><path class="cls-11" d="M175.14,39.31c7,14.61-24.08,14.35-53.5,11.87-32.5-2.74-52.5,0-53.5-11.87-1.31-15.59,23.95-11.87,53.5-11.87s46.5-2.74,53.5,11.87Z"/><path class="cls-13" d="M41.6,104.94c-.94,1.52-1.41,3.25-1.86,4.96-.49,1.85-.97,3.7-1.46,5.55-.21.78.26,1.63,1.05,1.85s1.64-.26,1.85-1.05c.47-1.79.94-3.57,1.41-5.36.42-1.59.77-3.08,1.61-4.43.43-.69.15-1.65-.54-2.05s-1.62-.15-2.05.54h0Z"/><path class="cls-13" d="M37.93,119.27c-.15.86-.29,1.71-.44,2.57-.09.52-.17,1.04-.22,1.56-.04.42-.02.84-.06,1.26l.05-.4c-.01.09-.03.17-.06.26-.23.75.28,1.67,1.05,1.85.82.19,1.59-.25,1.85-1.05.13-.41.13-.84.14-1.26,0-.36.04-.71.09-1.07l-.05.4c.15-1.11.37-2.22.55-3.33.07-.41.06-.79-.15-1.16-.18-.31-.54-.61-.9-.69-.73-.17-1.7.22-1.85,1.05h0Z"/><path class="cls-13" d="M185.56,81.83c-.12,1.48.58,2.87,1.13,4.19s1.09,2.52,1.7,3.76c1.21,2.48,2.56,4.89,4.04,7.21,1.03,1.62,3.63.12,2.59-1.51-1.39-2.18-2.66-4.42-3.81-6.73-.55-1.12-1.08-2.25-1.57-3.39-.46-1.07-1.18-2.34-1.09-3.53.06-.81-.74-1.5-1.5-1.5-.87,0-1.43.69-1.5,1.5h0Z"/><path class="cls-13" d="M193.91,99.65c-.1.72-.11,1.34,0,2.06.07.49.19.97.37,1.43.41,1.08.96,2.02,1.67,2.93.22.28.72.44,1.06.44.37,0,.81-.16,1.06-.44s.46-.66.44-1.06c-.02-.42-.18-.73-.44-1.06.28.36.06.08,0,0-.05-.07-.1-.14-.15-.21-.1-.15-.2-.31-.3-.47-.19-.32-.35-.65-.5-1l.15.36c-.23-.55-.4-1.12-.48-1.71l.05.4c-.05-.39-.05-.78,0-1.17l-.05.4v-.09c.07-.42.08-.78-.14-1.16-.18-.31-.54-.61-.9-.69-.38-.09-.81-.07-1.16.15-.3.2-.64.52-.69.9h0Z"/><path class="cls-13" d="M184.41,180.05c.73.22,1.46.11,2.15-.17.29-.12.56-.25.84-.38.06-.03.34-.14.16-.07.17-.06.35-.1.52-.15,1.35-.36,2.35-1.21,3.3-2.2.86-.9,1.66-1.87,2.45-2.83.84-1.02,1.64-2.07,2.31-3.21.41-.7.16-1.64-.54-2.05s-1.64-.16-2.05.54c-1.07,1.85-2.45,3.43-3.91,5.03-.37.41-.75.81-1.16,1.18-.32.29-.57.48-.93.59-.58.17-1.12.34-1.66.6-.1.05-.2.1-.29.14-.06.03-.34.13-.16.07-.02,0-.29.09-.29.08-.02-.08.49.09.06-.04-.75-.23-1.67.27-1.85,1.05-.18.81.24,1.6,1.05,1.85h0Z"/><path class="cls-13" d="M199.73,166.62c.16-.7.36-1.38.61-2.05.02-.05.23-.57.1-.26.07-.16.14-.33.22-.49.14-.3.29-.6.46-.89.69-1.26,1.65-2.42,1.89-3.88.13-.77-.2-1.65-1.05-1.85-.72-.16-1.71.22-1.85,1.05-.03.17-.06.33-.11.5-.02.06-.22.56-.07.24-.14.31-.31.62-.49.91-.35.58-.73,1.15-1.05,1.75-.7,1.31-1.23,2.72-1.56,4.17-.18.76.23,1.66,1.05,1.85.76.17,1.66-.23,1.85-1.05h0Z"/><path class="cls-26" d="M227.68,89.03c-.11.74-.22,1.48-.33,2.22-.03.19.05.41.26.46.18.04.43-.05.46-.26.11-.74.22-1.48.33-2.22.03-.19-.05-.41-.26-.46-.18-.04-.43.05-.46.26h0Z"/><path class="cls-26" d="M225.69,88.94l-.42,2.25c-.04.19.05.41.26.46.18.04.42-.06.46-.26.14-.75.28-1.5.42-2.25.04-.19-.05-.41-.26-.46-.18-.04-.42.06-.46.26h0Z"/><path class="cls-26" d="M223.65,88.54c-.36.72-.72,1.44-1.08,2.16-.09.18-.05.41.13.51.17.09.42.05.51-.13.36-.72.72-1.44,1.08-2.16.09-.18.05-.41-.13-.51-.17-.09-.42-.05-.51.13h0Z"/><path class="cls-26" d="M221.27,88.05c-.43.69-.87,1.37-1.3,2.06-.1.17-.04.42.13.51.18.1.4.04.51-.13.43-.69.87-1.37,1.3-2.06.1-.17.04-.42-.13-.51-.18-.1-.4-.04-.51.13h0Z"/><path class="cls-26" d="M211.47,96.09l.2-2.32c.02-.2-.18-.38-.38-.38-.22,0-.36.17-.38.38l-.2,2.32c-.02.2.18.38.38.38.22,0,.36-.17.38-.38h0Z"/><path class="cls-26" d="M214.07,96.98c.01-.71.02-1.42.03-2.13,0-.2-.17-.38-.38-.38s-.37.16-.38.38c-.01.71-.02,1.42-.03,2.13,0,.2.17.38.38.38s.37-.16.38-.38h0Z"/><path class="cls-26" d="M215.12,94.95c.1.8.2,1.61.3,2.41.02.19.16.38.38.38.18,0,.4-.17.38-.38-.1-.8-.2-1.61-.3-2.41-.02-.19-.16-.38-.38-.38-.18,0-.4.17-.38.38h0Z"/><path class="cls-31" d="M68.14,38.47c0-2,14,15,107.82,3.18.25-.03,1.18,3.82-2.82,6.82-2.62,1.97-9,4-29,4s-21.52-1.93-31.79-1.96c-12.21-.04-26.9-1.29-31.56-2.16s-12.65-1.87-12.65-9.87Z"/><rect class="cls-6" x="71.41" y="17.37" width="36.75" height="36.75" rx="4.51" ry="4.51" transform="translate(-6.58 43.05) rotate(-26.04)"/><rect class="cls-25" x="63.71" y="18.51" width="39.5" height="7.43" rx="3.54" ry="3.54" transform="translate(-1.29 38.9) rotate(-26.04)"/><rect class="cls-25" x="87.76" y="16.97" width="4.5" height="36.84" transform="translate(-6.4 43.11) rotate(-26.04)"/><path class="cls-25" d="M83.09,16.33c-.25-2.55-.18-5.02,1.18-7.27,1.19-1.96,3.13-3.36,5.35-3.92.98-.25,2.35-.48,3.19.25.75.65.33,1.84-.03,2.59-1.03,2.13-3.07,3.66-4.96,4.98-2.43,1.69-5.12,3.29-7.98,4.15-1.84.55-1.06,3.45.8,2.89,3.18-.96,6.21-2.7,8.91-4.6,2.53-1.78,5.06-3.83,6.21-6.8.64-1.64.68-3.53-.49-4.95-1.03-1.25-2.69-1.78-4.28-1.72-3.08.11-6.19,1.7-8.16,4.05-1.13,1.34-1.98,2.89-2.44,4.58-.51,1.88-.49,3.85-.3,5.77.08.81.63,1.5,1.5,1.5.75,0,1.58-.69,1.5-1.5h0Z"/><path class="cls-25" d="M78.54,17.93c-2.25,2.15-4.91,3.74-8.15,3.28-1.33-.19-2.61-.72-3.71-1.49-.84-.59-2.26-1.78-1.92-2.97s2.47-1.38,3.47-1.37c1.53,0,3.03.37,4.5.79,2.99.85,6.04,2.03,8.6,3.83,1.58,1.11,3.08-1.49,1.51-2.59-2.58-1.81-5.67-3.03-8.67-3.95s-6.44-1.67-9.48-.42c-1.45.6-2.63,1.7-2.89,3.31s.35,2.98,1.32,4.16c1.9,2.3,4.97,3.6,7.9,3.75,3.8.2,6.97-1.67,9.64-4.21,1.4-1.34-.72-3.45-2.12-2.12h0Z"/><path class="cls-25" d="M81.16,16.75c-2.58,2.83-4.69,6.03-7.15,8.95s-5.14,5.6-8.02,8.07c-1.47,1.26.66,3.37,2.12,2.12,2.88-2.47,5.57-5.17,8.02-8.07s4.58-6.12,7.15-8.95c1.3-1.42-.82-3.55-2.12-2.12h0Z"/><path class="cls-25" d="M81.9,20.88c3.55-.32,7.11-.65,10.61-1.37s6.71-1.93,10-3.09c1.81-.64,1.03-3.54-.8-2.89-3.17,1.12-6.33,2.31-9.62,3.01s-6.78,1.03-10.19,1.34c-1.91.17-1.93,3.18,0,3h0Z"/><rect class="cls-25" x="78.58" y="16.74" width="6.78" height="3.83" rx="1.5" ry="1.5" transform="translate(.13 37.88) rotate(-26.04)"/><ellipse class="cls-1" cx="98.07" cy="36.09" rx="3" ry="1.12" transform="translate(-5.8 47.56) rotate(-26.5)"/><path class="cls-7" d="M89.18,41.19c.44-.51,1.79-.67,2.88-1.26,1.38-.75,2.34-1.27,3.08-1.31.17.24.2.54.29,1.26.1.78-.12,1.37-.17,1.5-.45,1.18-1.54,1.66-1.78,1.75-.12.08-1.21.78-2.48.34-.58-.2-.96-.57-1.14-.78-.52-.59-.64-1.24-.68-1.5Z"/><path d="M95.33,39.75c-1.76,1.03-3.53,2.14-5.55,2.55-.09.02-.05.16.04.14,2.03-.41,3.82-1.53,5.59-2.56.08-.05,0-.18-.08-.13h0Z"/><ellipse class="cls-20" cx="85.34" cy="42.63" rx="3" ry="1.12" transform="translate(-10.06 42.56) rotate(-26.5)"/><path d="M77.87,36.44c.02.07.12.36.6.6.21.11.88.09,1.02.05-.06.14-.38.33-.66.42-.55.19-.89-.05-1.02-.05.12.36.42.66.84.71.27.04,1.01-.1,1.14-.19.04-.6-.05-1.3,0-1.9-.29.15-.54.27-.72.35-.32.14-.42.17-.54.18-.29.02-.52-.09-.66-.18Z"/><path d="M85.91,37.16c.25,1.82-1.03,3.5-2.85,3.75s-3.5-1.03-3.75-2.85c-.25-1.82,1.03-3.5,2.85-3.75.11-.01.58-.1,1.17.05,1.19.29,2.38,1.35,2.57,2.8Z"/><circle class="cls-13" cx="81.29" cy="38.66" r="1.3"/><circle class="cls-13" cx="83.03" cy="36.38" r=".72"/><path d="M97.89,26.46c.04.06.21.31.11.84-.04.23-.46.76-.57.85.14.04.49-.11.73-.27.48-.32.5-.74.57-.85.21.31.27.73.06,1.1-.13.23-.69.75-.83.8-.5-.33-1.01-.82-1.52-1.15.3-.14.54-.27.71-.37.31-.17.39-.23.47-.32.19-.22.24-.47.26-.63Z"/><path d="M99.03,30.38c.25,1.82-1.03,3.5-2.85,3.75s-3.5-1.03-3.75-2.85c-.25-1.82,1.03-3.5,2.85-3.75.11-.01.58-.1,1.17.05,1.19.29,2.38,1.35,2.57,2.8Z"/><circle class="cls-13" cx="94.41" cy="31.88" r="1.3"/><circle class="cls-13" cx="96.15" cy="29.6" r=".72"/><rect class="cls-27" x="119.84" y="12.55" width="34.08" height="35.44" rx="4.51" ry="4.51" transform="translate(-.25 1.15) rotate(-.48)"/><rect class="cls-24" x="118.68" y="12.29" width="36.63" height="7.17" rx="3.09" ry="3.09" transform="translate(-.13 1.15) rotate(-.48)"/><rect class="cls-30" x="135.13" y="12.29" width="4.17" height="35.53" transform="translate(-.25 1.15) rotate(-.48)"/><path class="cls-30" d="M139.16,10.35c.93-2.66,2.32-5.06,4.98-6.28,1.31-.6,2.81-.82,4.24-.63,1.11.15,2.82.56,3.18,1.8.34,1.17-1.09,2.24-1.96,2.76-1.13.68-2.41,1.05-3.69,1.34-3.11.71-6.6,1.13-9.77.63-.76-.12-1.53.19-1.75.99-.19.67.23,1.62.99,1.75,3.31.53,6.76.24,10.04-.38,2.75-.51,5.74-1.36,7.65-3.54,1.04-1.19,1.68-2.72,1.22-4.3-.43-1.45-1.56-2.52-2.92-3.12-2.83-1.25-6.18-1.02-8.91.37-3.18,1.62-4.91,4.6-6.04,7.86-.6,1.73,2.14,2.47,2.74.75h0Z"/><path class="cls-30" d="M134.69,10.08c-2.25.76-4.5,1.18-6.77.26-1.87-.76-3.36-2.31-4.18-4.14-.35-.78-.71-1.88-.28-2.71.41-.78,1.44-.64,2.17-.46,2.17.53,3.95,2.23,5.51,3.75,1.87,1.82,3.66,3.86,4.9,6.17.87,1.61,3.32.18,2.45-1.43-1.41-2.62-3.49-4.98-5.63-7.03s-4.47-3.99-7.41-4.36c-1.45-.18-2.99.11-3.97,1.27s-1.18,2.68-.91,4.13c.52,2.73,2.49,5.24,4.82,6.68,3.14,1.93,6.69,1.75,10.06.6,1.72-.58.98-3.33-.75-2.74h0Z"/><path class="cls-30" d="M137.01,10.3c-3.23,1.37-6.21,3.22-9.38,4.72s-6.43,2.69-9.78,3.63c-1.76.49-1.01,3.23.75,2.74,3.48-.97,6.86-2.23,10.14-3.76s6.37-3.46,9.7-4.87c.71-.3.85-1.34.51-1.94-.42-.74-1.24-.81-1.94-.51h0Z"/><path class="cls-30" d="M136.45,14.12c3.06,1.18,6.13,2.37,9.31,3.17s6.48,1.1,9.74,1.46c.76.09,1.42-.71,1.42-1.42,0-.84-.65-1.33-1.42-1.42-3.13-.35-6.27-.64-9.32-1.45s-6.02-1.95-8.97-3.09c-.72-.28-1.55.31-1.75.99-.23.8.28,1.47.99,1.75h0Z"/><rect class="cls-2" x="134.04" y="10.3" width="6.29" height="3.69" rx="1.5" ry="1.5" transform="translate(-.1 1.15) rotate(-.48)"/><ellipse class="cls-21" cx="143.88" cy="33.25" rx="2.78" ry="1.09" transform="translate(-.14 .6) rotate(-.24)"/><path class="cls-10" d="M134.4,33.86c.58-.25,1.76.18,2.91.14,1.46-.06,2.47-.1,3.1.18.04.28-.05.55-.28,1.22-.24.72-.66,1.13-.75,1.22-.86.82-1.96.77-2.2.76-.13.02-1.32.16-2.2-.77-.4-.42-.56-.91-.63-1.16-.19-.73-.03-1.35.05-1.58Z"/><path d="M140.11,35.24c-1.88.14-3.82.34-5.66-.17-.09-.02-.13.11-.04.14,1.86.51,3.8.31,5.7.17.09,0,.09-.15,0-.14h0Z"/><ellipse class="cls-19" cx="130.61" cy="33.47" rx="2.78" ry="1.09" transform="translate(-.14 .55) rotate(-.24)"/><path d="M126.94,24.93c0,.07-.05.36.26.77.13.18.7.45.83.48-.1.1-.45.12-.72.09-.53-.07-.72-.42-.83-.48-.05.36.08.75.41.98.21.14.88.35,1.02.32.28-.5.5-1.15.78-1.65-.3,0-.56,0-.75,0-.32-.01-.42-.03-.52-.07-.25-.1-.4-.3-.48-.43Z"/><path d="M133.33,28.98c-.54,1.68-2.29,2.59-3.91,2.02s-2.49-2.39-1.95-4.07c.54-1.68,2.29-2.59,3.91-2.02.1.03.52.16.96.54.87.76,1.42,2.18.99,3.52Z"/><ellipse class="cls-13" cx="128.87" cy="28.31" rx="1.21" ry="1.26" transform="translate(-.12 .54) rotate(-.24)"/><ellipse class="cls-13" cx="131.25" cy="27.07" rx=".67" ry=".7" transform="translate(-.11 .55) rotate(-.24)"/><path d="M147.68,24.84c0,.07.05.36-.25.77-.13.18-.7.46-.82.49.1.09.45.12.72.08.53-.08.72-.43.82-.49.05.36-.08.75-.4.98-.2.15-.88.35-1.02.33-.28-.5-.51-1.14-.79-1.64.3,0,.56,0,.75-.01.32-.02.42-.03.52-.08.25-.1.39-.31.47-.44Z"/><path d="M147.02,28.72c-.54,1.68-2.29,2.59-3.91,2.02s-2.49-2.39-1.95-4.07c.54-1.68,2.29-2.59,3.91-2.02.1.03.52.16.96.54.87.76,1.42,2.18.99,3.52Z"/><ellipse class="cls-13" cx="142.57" cy="28.05" rx="1.21" ry="1.26" transform="translate(-.12 .6) rotate(-.24)"/><ellipse class="cls-13" cx="144.95" cy="26.81" rx=".67" ry=".7" transform="translate(-.11 .61) rotate(-.24)"/><rect class="cls-16" x="146.67" y="28.11" width="27.32" height="27.32" rx="2.5" ry="2.5" transform="translate(18.7 -44.21) rotate(16.66)"/><rect class="cls-12" x="149.01" y="28.43" width="29.37" height="5.52" rx="2.76" ry="2.76" transform="translate(15.81 -45.61) rotate(16.66)"/><rect class="cls-29" x="158.96" y="27.99" width="3.35" height="27.39" transform="translate(18.69 -44.3) rotate(16.66)"/><path class="cls-29" d="M166.61,27.59c1.39-1.84,3.2-3.32,5.6-3.42,1.11-.05,2.23.17,3.23.67.74.37,1.92,1.06,1.85,2.03s-1.53,1.36-2.29,1.52c-1.1.23-2.27.15-3.38.04-2.44-.24-5.05-.76-7.27-1.83-1.29-.62-2.42,1.3-1.13,1.93,2.36,1.14,5,1.72,7.59,2.04,2.3.29,4.89.41,6.93-.87,1-.63,1.76-1.6,1.78-2.82.02-1.15-.61-2.23-1.46-2.96-1.79-1.52-4.26-2.2-6.58-1.91-2.96.37-5.06,2.16-6.8,4.46-.37.48-.07,1.24.4,1.53.57.34,1.16.08,1.53-.4h0Z"/><path class="cls-29" d="M163.22,26.36c-1.8.03-3.51-.17-5.01-1.25-1.33-.96-2.22-2.47-2.48-4.08-.11-.67-.17-1.6.35-2.13s1.35-.11,1.88.2c1.43.85,2.37,2.39,3.19,3.79,1.08,1.85,2.05,3.86,2.5,5.97.3,1.4,2.45.81,2.15-.59-.5-2.34-1.61-4.62-2.82-6.67-1.08-1.83-2.42-3.78-4.41-4.7-1.15-.53-2.5-.74-3.59.04-1.01.71-1.47,1.88-1.52,3.09-.1,2.24.95,4.58,2.55,6.12,1.98,1.91,4.54,2.49,7.22,2.44,1.43-.03,1.44-2.26,0-2.23h0Z"/><path class="cls-29" d="M165.22,26.84c-2.77.31-5.47,1.01-8.22,1.45s-5.72.63-8.6.6c-1.44-.02-1.44,2.21,0,2.23,2.87.03,5.72-.17,8.55-.58s5.49-1.16,8.27-1.47c1.41-.16,1.43-2.39,0-2.23h0Z"/><path class="cls-29" d="M163.71,29.81c2,1.53,4,3.07,6.15,4.38,2.26,1.37,4.7,2.37,7.12,3.41.55.24,1.2.16,1.53-.4.28-.47.16-1.29-.4-1.53-2.42-1.04-4.86-2.04-7.12-3.41s-4.15-2.84-6.15-4.38c-.48-.37-1.25-.07-1.53.4-.34.57-.08,1.16.4,1.53h0Z"/><rect class="cls-12" x="162.17" y="27.07" width="5.04" height="2.84" rx="1.42" ry="1.42" transform="translate(15.08 -46.01) rotate(16.66)"/><ellipse class="cls-17" cx="164.75" cy="46.93" rx=".84" ry="2.23" transform="translate(73.72 192.05) rotate(-73.8)"/><path class="cls-9" d="M157.32,45.23c.5-.05,1.31.54,2.21.76,1.13.29,1.92.49,2.34.83-.03.22-.16.4-.48.84-.34.48-.76.69-.85.73-.84.41-1.68.13-1.86.06-.11-.02-1.05-.18-1.52-1.07-.21-.4-.24-.8-.23-1,.01-.59.27-1,.38-1.16Z"/><path d="M161.41,47.55c-1.48-.32-3.01-.61-4.32-1.41-.06-.04-.12.06-.06.1,1.32.8,2.86,1.09,4.34,1.42.07.02.1-.09.03-.11h0Z"/><ellipse class="cls-22" cx="154.49" cy="44.08" rx=".84" ry="2.23" transform="translate(69.06 180.15) rotate(-73.8)"/><path d="M153.53,36.94c-.02.05-.11.26.03.63.06.17.44.49.53.54-.1.05-.37-.01-.57-.1-.39-.17-.46-.47-.53-.54-.11.26-.1.57.1.81.13.15.6.46.72.47.32-.31.63-.74.96-1.04-.24-.06-.43-.13-.57-.17-.25-.08-.32-.12-.39-.17-.17-.13-.24-.31-.27-.43Z"/><path d="M157.57,41.38c-.78,1.12-2.33,1.39-3.45.61s-1.39-2.33-.61-3.45c.78-1.12,2.33-1.39,3.45-.61.07.05.37.24.62.62.5.76.62,1.94,0,2.83Z"/><circle class="cls-13" cx="154.28" cy="39.87" r=".97"/><circle class="cls-13" cx="156.38" cy="39.5" r=".54"/><path d="M169.5,41.58c0,.06-.04.28-.36.52-.14.11-.64.18-.74.17.06.09.32.19.54.22.42.06.64-.15.74-.17-.04.28-.22.54-.52.63-.19.06-.75.06-.86.01-.11-.43-.14-.96-.25-1.39.23.07.43.12.58.16.25.06.33.07.42.06.21-.02.37-.14.46-.22Z"/><path d="M168.15,44.29c-.78,1.12-2.33,1.39-3.45.61s-1.39-2.33-.61-3.45c.78-1.12,2.33-1.39,3.45-.61.07.05.37.24.62.62.5.76.62,1.94,0,2.83Z"/><circle class="cls-13" cx="164.87" cy="42.79" r=".97"/><circle class="cls-13" cx="166.97" cy="42.42" r=".54"/><rect class="cls-15" x="104.21" y="31.55" width="25.53" height="25.53" rx="2.45" ry="2.45" transform="translate(-7.05 28.06) rotate(-13.28)"/><rect class="cls-3" x="101.05" y="31.61" width="27.44" height="5.16" rx="1.7" ry="1.7" transform="translate(-4.78 27.28) rotate(-13.28)"/><rect class="cls-5" x="115.62" y="31.32" width="3.13" height="25.59" transform="translate(-7 28.1) rotate(-13.28)"/><path class="cls-5" d="M115.45,29.91c.2-1.61.64-3.18,1.77-4.39s2.6-1.89,4.2-1.96c.71-.03,1.65,0,2.17.56s.09,1.3-.3,1.82c-.96,1.27-2.58,1.99-4,2.58-1.93.8-4.05,1.49-6.14,1.64-1.33.09-1.34,2.18,0,2.08,2.4-.17,4.78-.91,6.99-1.84,1.96-.82,4.01-1.85,5.16-3.72.64-1.04.88-2.33.24-3.43-.57-.98-1.64-1.53-2.73-1.69-2.26-.35-4.57.37-6.33,1.8-2.03,1.65-2.79,4.03-3.11,6.54-.07.56.53,1.04,1.04,1.04.62,0,.97-.48,1.04-1.04h0Z"/><path class="cls-5" d="M112.13,30.5c-1.92,1.15-4.02,1.82-6.19.93-.82-.34-1.55-.87-2.15-1.53-.48-.53-1.23-1.51-.86-2.28s1.86-.58,2.53-.43c1.03.23,1.99.7,2.91,1.2,1.91,1.04,3.81,2.31,5.27,3.92.9,1,2.37-.48,1.47-1.47-1.45-1.61-3.34-2.91-5.21-3.98s-4.17-2.17-6.48-1.79-3.21,2.75-2.2,4.79c.9,1.81,2.74,3.17,4.64,3.74,2.58.77,5.06.03,7.3-1.31,1.15-.69.1-2.49-1.05-1.8h0Z"/><path class="cls-5" d="M114.08,30.11c-2.19,1.53-4.12,3.38-6.24,4.98s-4.32,2.99-6.65,4.22c-1.19.63-.13,2.43,1.05,1.8,2.32-1.23,4.55-2.63,6.65-4.22s4.06-3.46,6.24-4.98c1.09-.76.05-2.57-1.05-1.8h0Z"/><path class="cls-5" d="M114.15,33.06c2.39.32,4.79.63,7.2.68s4.79-.28,7.17-.56c.56-.07,1.04-.43,1.04-1.04,0-.51-.48-1.11-1.04-1.04-2.39.28-4.77.61-7.17.56s-4.81-.36-7.2-.68c-.56-.07-1.04.53-1.04,1.04,0,.62.49.97,1.04,1.04h0Z"/><rect class="cls-3" x="111.96" y="30.21" width="4.71" height="2.66" rx=".87" ry=".87" transform="translate(-4.19 27.1) rotate(-13.28)"/><ellipse class="cls-18" cx="122.98" cy="46.75" rx="2.08" ry=".78" transform="translate(-7.45 29.47) rotate(-13.27)"/><path class="cls-8" d="M116.16,48.78c.38-.27,1.32-.17,2.15-.39,1.05-.28,1.79-.49,2.29-.4.08.19.05.4,0,.9-.06.54-.3.91-.35.98-.49.72-1.31.87-1.48.9-.09.04-.94.34-1.73-.17-.36-.23-.56-.54-.65-.71-.26-.48-.24-.94-.22-1.12Z"/><path d="M120.55,48.78c-1.35.42-2.73.88-4.16.84-.07,0-.07.1,0,.1,1.44.04,2.83-.43,4.19-.84.06-.02.04-.12-.03-.1h0Z"/><ellipse class="cls-23" cx="113.33" cy="49.15" rx="2.08" ry=".78" transform="translate(-8.25 27.32) rotate(-13.27)"/><path d="M109.26,43.77c0,.05.03.26.31.5.13.11.58.2.68.2-.06.08-.31.16-.51.18-.4.04-.59-.17-.68-.2.03.26.18.51.46.62.17.07.7.09.8.05.12-.4.18-.89.3-1.29-.22.06-.41.09-.55.12-.24.05-.31.05-.39.04-.2-.03-.34-.15-.42-.22Z"/><path d="M114.59,45.54c-.12,1.27-1.25,2.2-2.53,2.08s-2.2-1.25-2.08-2.53c.12-1.27,1.25-2.2,2.53-2.08.07,0,.41.03.79.22.76.39,1.39,1.29,1.29,2.31Z"/><circle class="cls-13" cx="111.22" cy="45.82" r=".91"/><circle class="cls-13" cx="112.76" cy="44.55" r=".5"/><path d="M124.39,40.21s.09.25-.06.59c-.07.15-.43.44-.52.48.09.05.35,0,.54-.07.37-.14.45-.42.52-.48.09.25.07.54-.13.76-.13.14-.59.4-.69.41-.29-.3-.55-.72-.84-1.02.22-.05.41-.1.54-.14.23-.07.3-.09.37-.14.16-.12.24-.28.27-.39Z"/><path d="M124.54,43.04c-.12,1.27-1.25,2.2-2.53,2.08s-2.2-1.25-2.08-2.53c.12-1.27,1.25-2.2,2.53-2.08.07,0,.41.03.79.22.76.39,1.39,1.29,1.29,2.31Z"/><circle class="cls-13" cx="121.18" cy="43.32" r=".91"/><circle class="cls-13" cx="122.71" cy="42.05" r=".5"/><path class="cls-28" d="M73.47,46.4s13.35,3.52,25.76,3.64c14.89.15,21.81.92,30.25,1.51,7.06.49,10.22.16,16.14.37,6.61.24,23.51-1.08,26.8-2.98.24-.14-1.13,8.7-4.37,9.89-10.48,3.82-58.74,2.24-58.74,2.24,0,0-26.95,1.51-30.49-1.59s-6.44-11.84-5.35-13.07Z"/><path d="M70.89,131.9h.08c.46-.65,1.1-1.46,1.63-2.09l5.5-6.33h4.08l-7.21,7.56,8.22,10.82h-4.14l-6.42-8.83-1.74,1.91v6.92h-3.38v-26.98h3.38v17.03Z"/><path d="M85.98,114.88h3.38v26.98h-3.38v-26.98Z"/><path d="M98.58,118.28c0,1.14-.81,2.08-2.16,2.08-1.23,0-2.05-.94-2.05-2.08,0-1.15.87-2.08,2.11-2.08s2.09.91,2.1,2.08ZM94.78,141.85v-18.37h3.38v18.37h-3.38Z"/><path d="M106.88,131.9h.08c.46-.65,1.1-1.46,1.63-2.09l5.5-6.33h4.08l-7.21,7.56,8.22,10.82h-4.14l-6.42-8.83-1.74,1.91v6.92h-3.38v-26.98h3.38v17.03Z"/><path d="M129.19,114.88h3.38v11.47h.08c.56-.94,1.41-1.78,2.44-2.36.99-.58,2.19-.93,3.48-.93,2.52,0,6.51,1.51,6.51,7.85v10.94h-3.38v-10.58c0-2.97-1.14-5.46-4.32-5.46-2.22,0-3.93,1.53-4.58,3.33-.17.47-.23.97-.23,1.59v11.11h-3.38v-26.98Z"/><path d="M152.21,133.27c.07,4.52,2.98,6.38,6.39,6.38,2.43,0,3.92-.43,5.17-.94l.59,2.37c-1.19.53-3.26,1.17-6.23,1.17-5.74,0-9.19-3.76-9.19-9.27s3.33-9.92,8.78-9.92c6.09,0,7.68,5.26,7.68,8.64,0,.7-.04,1.2-.12,1.57h-13.09ZM162.14,130.86c.03-2.11-.88-5.41-4.68-5.41-3.47,0-4.94,3.08-5.21,5.41h9.9Z"/><path d="M169.34,129.2c0-2.17-.05-4.02-.15-5.72h2.98l.13,3.6h.12c.87-2.47,2.93-4.02,5.2-4.02.37,0,.63.02.94.09v3.14c-.35-.07-.69-.1-1.16-.1-2.39,0-4.08,1.78-4.54,4.27-.09.47-.14,1.02-.14,1.56v9.82h-3.38v-12.65Z"/></svg>