<svg width="205" height="79" viewBox="0 0 205 79" fill="none" xmlns="http://www.w3.org/2000/svg">
<path d="M0.171875 73V54.8182H5.07244V61.7429H5.14347C5.32102 61.2812 5.58144 60.8581 5.92472 60.4734C6.26799 60.0827 6.69413 59.772 7.20312 59.5412C7.71212 59.3045 8.30398 59.1861 8.97869 59.1861C9.87831 59.1861 10.7335 59.4258 11.5444 59.9052C12.3612 60.3846 13.024 61.1392 13.533 62.169C14.0479 63.1989 14.3054 64.5365 14.3054 66.1818C14.3054 67.7562 14.0598 69.0612 13.5685 70.0969C13.0832 71.1327 12.4322 71.9051 11.6154 72.4141C10.8046 72.9231 9.91383 73.1776 8.94318 73.1776C8.30398 73.1776 7.73284 73.074 7.22976 72.8668C6.7326 72.6538 6.30646 72.3667 5.95135 72.0057C5.60215 71.6387 5.33286 71.2244 5.14347 70.7628H5.03693V73H0.171875ZM4.96591 66.1818C4.96591 66.8447 5.05173 67.4188 5.22337 67.9041C5.40092 68.3835 5.6495 68.7564 5.96911 69.0227C6.29463 69.2831 6.68229 69.4134 7.1321 69.4134C7.58191 69.4134 7.96366 69.2861 8.27734 69.0316C8.59695 68.7712 8.83961 68.4013 9.00533 67.9219C9.17697 67.4366 9.26278 66.8565 9.26278 66.1818C9.26278 65.5071 9.17697 64.93 9.00533 64.4506C8.83961 63.9653 8.59695 63.5954 8.27734 63.3409C7.96366 63.0805 7.58191 62.9503 7.1321 62.9503C6.68229 62.9503 6.29463 63.0805 5.96911 63.3409C5.6495 63.5954 5.40092 63.9653 5.22337 64.4506C5.05173 64.93 4.96591 65.5071 4.96591 66.1818ZM18.1741 78.1136C17.6118 78.1136 17.0762 78.0692 16.5672 77.9805C16.0582 77.8976 15.6114 77.7822 15.2267 77.6342L16.292 74.1541C16.6945 74.2962 17.0614 74.3879 17.3928 74.4293C17.7302 74.4708 18.0173 74.4471 18.254 74.3583C18.4967 74.2695 18.6713 74.1009 18.7778 73.8523L18.8843 73.6037L14.0903 59.3636H19.2039L21.4056 68.8097H21.5477L23.7849 59.3636H28.934L23.9624 74.1364C23.7139 74.888 23.3528 75.5627 22.8794 76.1605C22.4118 76.7642 21.7963 77.2406 21.0328 77.5898C20.2693 77.939 19.3164 78.1136 18.1741 78.1136ZM54.1872 0.272725L66.1191 21.4375H66.6872L78.7611 0.272725H100.778L79.0452 36.6364L101.63 73H79.0452L66.6872 51.4091H66.1191L53.7611 73H31.3179L53.6191 36.6364L32.0281 0.272725H54.1872ZM126.036 0.272725V73H106.292V0.272725H126.036ZM151.286 73H129.979L153.984 0.272725H180.973L204.979 73H183.672L167.763 20.3011H167.195L151.286 73ZM147.308 44.3068H187.365V59.0795H147.308V44.3068Z" fill="black"/>
</svg>
